<svg width="32" height="32" viewBox="0 0 32 32" fill="none" xmlns="http://www.w3.org/2000/svg">
<path d="M29.9796 6.6178C29.9628 6.5719 29.948 6.52599 29.9331 6.48008C29.894 6.36439 29.8513 6.23218 29.7825 6.10547C29.4293 5.43705 28.8326 5.05876 28.0593 5.01469C27.9831 5.01102 27.9088 5.01102 27.8326 5.01102H22.3917C16.8392 5.01469 11.0954 5.01653 5.44812 5H5.43139C4.6042 5 3.46657 5.16894 3.01673 6.58291L3 6.63617V24.3641L3.02974 24.4339C3.05019 24.4816 3.06878 24.5293 3.08737 24.5771C3.1357 24.6983 3.18589 24.825 3.25838 24.9517C3.56324 25.4824 4.02609 25.8111 4.64138 25.9341V26.059C4.64138 26.3969 4.64138 26.7366 4.64138 27.0745C4.64138 27.7025 4.94065 27.9945 5.57824 27.9963C5.77157 27.9963 5.96489 27.9963 6.15821 27.9963C6.56158 27.9963 6.96496 27.9945 7.36833 28C7.73267 28 8.01336 27.8494 8.19738 27.5409C8.34237 27.2967 8.48923 27.0543 8.63793 26.8119C8.80709 26.5346 8.97625 26.2573 9.14169 25.9764C9.14169 25.9745 9.1454 25.9709 9.1454 25.969C13.8446 25.9745 18.7948 25.9745 23.8565 25.969C23.9959 26.2059 24.139 26.441 24.284 26.676C24.4476 26.9441 24.613 27.2141 24.771 27.4858C24.9718 27.8311 25.2599 28 25.6503 28C25.6596 28 25.6707 28 25.68 28C26.0592 27.9908 26.4496 27.9927 26.8251 27.9945C27.0481 27.9945 27.2712 27.9945 27.4924 27.9945C28.0482 27.9927 28.3549 27.686 28.3586 27.1333C28.3605 26.7844 28.3586 26.4354 28.3586 26.081V25.9341H28.3623C29.1282 25.7762 29.6673 25.2951 29.9182 24.5459L30 24.2998V6.6784L29.9777 6.6178H29.9796ZM26.786 25.9874V26.452C26.5146 26.452 26.2432 26.452 25.9718 26.4501C25.877 26.2977 25.7841 26.1435 25.6874 25.9874H26.786ZM7.31628 25.9855C7.21962 26.1416 7.12482 26.2977 7.03002 26.4501C6.76234 26.452 6.49466 26.452 6.22141 26.4501V25.9837H7.31628V25.9855ZM4.5633 7.1485C4.5633 6.69309 4.70272 6.55537 5.15814 6.55537H14.2257H27.8251C28.2991 6.55537 28.4367 6.69126 28.4367 7.16136V23.8224C28.4367 24.2943 28.301 24.4302 27.827 24.4302H5.16186C4.71015 24.4302 4.56516 24.2851 4.56516 23.837V7.1485H4.5633Z" fill="black"/>
<path d="M12.7683 23.5449C12.7832 23.5449 12.7999 23.5449 12.8148 23.5449C15.0101 23.5321 17.066 22.6855 18.6052 21.1614C20.1462 19.6354 20.9864 17.6117 20.9752 15.4614C20.9492 11.0303 17.2798 7.43848 12.7851 7.43848C12.7739 7.43848 12.7609 7.43848 12.7479 7.43848C10.5767 7.44766 8.53941 8.29421 7.01143 9.82019C5.47043 11.359 4.62836 13.4029 4.64138 15.5752C4.6674 19.9806 8.30706 23.5449 12.7683 23.5449ZM6.20468 15.4761C6.2084 11.8934 9.177 8.98099 12.8222 8.98099H12.8297C14.5844 8.98099 16.237 9.66227 17.4824 10.8963C18.7297 12.1303 19.4138 13.761 19.4101 15.4908C19.4026 19.0826 16.4322 22.0006 12.7832 22.0006H12.772C9.1454 21.995 6.20096 19.0679 6.20468 15.4742V15.4761Z" fill="black"/>
<path d="M21.9102 9.18302C21.9325 9.18302 21.9548 9.18302 21.9753 9.18302C21.992 9.18302 22.0069 9.18302 22.0236 9.18302H22.0701H26.6039C26.879 9.18302 27.1541 9.18302 27.431 9.18302C27.7452 9.18302 27.9887 9.09855 28.1542 8.93145C28.2917 8.79372 28.3623 8.60825 28.3586 8.39891C28.3549 8.22079 28.2806 7.64051 27.4199 7.63867H22.4958H22.3173C22.1779 7.63867 22.0385 7.63867 21.8991 7.63867C21.3953 7.64602 21.0477 7.96921 21.0533 8.42095C21.0607 8.86717 21.4046 9.17201 21.9102 9.18119V9.18302Z" fill="black"/>
<path d="M27.5017 9.66504C26.8288 9.66504 26.1559 9.66504 25.483 9.66504H24.7059H24.2951H23.6761C23.0794 9.66504 22.4827 9.66504 21.8861 9.66504H21.8842C21.4567 9.66504 21.1462 9.89825 21.0905 10.26C21.0533 10.4969 21.1425 10.7925 21.3042 10.9762C21.4362 11.1268 21.6556 11.202 21.9585 11.2039C22.9605 11.2094 23.9624 11.2094 24.9643 11.2076H25.8064H26.2971C26.4607 11.2076 26.6243 11.2076 26.7879 11.2076C27.0351 11.2076 27.2805 11.2076 27.5277 11.2057C27.7898 11.2039 28.0203 11.1047 28.1746 10.9284C28.3177 10.765 28.3791 10.5557 28.3493 10.3371C28.2936 9.92947 27.9608 9.66688 27.498 9.66504H27.5017Z" fill="black"/>
<path d="M21.9046 13.2282C22.3043 13.2282 22.704 13.2282 23.1036 13.2282C23.3694 13.2282 23.6371 13.2282 23.9029 13.2282H24.7004H25.4811C26.1614 13.2282 26.8418 13.2282 27.5221 13.2282C28.0073 13.2282 28.3512 12.9142 28.3586 12.4679C28.3623 12.2604 28.2861 12.0658 28.143 11.9244C27.9906 11.772 27.7749 11.6875 27.5333 11.6875C26.4217 11.6875 25.3101 11.6875 24.2003 11.6875H21.8935C21.4938 11.6875 21.2001 11.8913 21.0886 12.2457C21.0161 12.4734 21.0551 12.7122 21.1946 12.8976C21.3507 13.107 21.6109 13.2282 21.9065 13.23L21.9046 13.2282Z" fill="black"/>
<path d="M21.9102 15.2524C22.5813 15.2524 23.2523 15.2524 23.9252 15.2524H24.6799H25.4607C25.7209 15.2524 25.9811 15.2524 26.2414 15.2524C26.6615 15.2524 27.0816 15.2524 27.5017 15.2524C27.7787 15.2524 28.0184 15.1514 28.1783 14.9714C28.3196 14.8098 28.3828 14.6005 28.353 14.3801C28.2954 13.9596 27.9683 13.7098 27.4757 13.708C26.5518 13.708 25.6261 13.708 24.7022 13.708H23.6799H23.165C22.7374 13.708 22.3099 13.708 21.8823 13.7098C21.6202 13.7117 21.3897 13.8108 21.2355 13.9871C21.0923 14.1487 21.031 14.3599 21.0607 14.5803C21.1146 14.9879 21.4492 15.2505 21.9121 15.2524H21.9102Z" fill="black"/>
<path d="M27.5073 15.7333C26.7563 15.7314 26.0072 15.7314 25.2562 15.7333H24.3769H23.6929C23.0999 15.7333 22.5069 15.7333 21.9139 15.7333C21.4269 15.7333 21.0886 16.0142 21.0551 16.4439C21.0384 16.6588 21.1072 16.8608 21.2485 17.0132C21.4046 17.1821 21.6388 17.274 21.9046 17.2758C22.5701 17.2776 23.2375 17.2758 23.9029 17.2758H24.7245H25.4142C25.641 17.2758 25.8696 17.2758 26.102 17.2758C26.5574 17.2758 27.0202 17.274 27.4757 17.2648C27.7062 17.2593 28.037 17.1473 28.2155 16.9122C28.3828 16.6918 28.4107 16.4182 28.2917 16.1795C28.1542 15.9041 27.8512 15.7333 27.5054 15.7314L27.5073 15.7333Z" fill="black"/>
<path d="M27.4664 17.7549C25.6279 17.7549 23.7914 17.7549 21.953 17.7549C21.5831 17.7549 21.373 17.8908 21.2596 18.0046C21.1202 18.146 21.0496 18.3315 21.0533 18.5445C21.0644 19.0017 21.4139 19.2974 21.9437 19.2992C22.3433 19.2992 22.7449 19.2992 23.1445 19.2992C23.401 19.2992 23.6594 19.2992 23.9159 19.2992H24.6874H25.4792C26.1391 19.2992 26.799 19.2992 27.4571 19.2992C27.8251 19.2992 28.037 19.1633 28.1504 19.0477C28.2898 18.9063 28.3605 18.7208 28.3568 18.5096C28.3493 18.1625 28.1095 17.7567 27.4645 17.7567L27.4664 17.7549Z" fill="black"/>
<path d="M21.9102 21.3188C22.5776 21.3188 23.2449 21.3188 23.9104 21.3188H24.6799H25.4737C25.7376 21.3188 26.0016 21.3188 26.2674 21.3188C26.6782 21.3188 27.0909 21.3188 27.5035 21.3188C27.7805 21.3188 28.0203 21.2178 28.1802 21.0378C28.3214 20.8762 28.3846 20.6669 28.3549 20.4465C28.2973 20.026 27.9701 19.7763 27.4775 19.7744C26.5407 19.7744 25.6038 19.7744 24.6669 19.7744H23.6836H23.1538C22.7318 19.7744 22.3099 19.7744 21.8861 19.7763C21.624 19.7781 21.3935 19.8772 21.2392 20.0535C21.096 20.2151 21.0347 20.4263 21.0644 20.6467C21.1183 21.0543 21.4529 21.3169 21.9158 21.3188H21.9102Z" fill="black"/>
<path d="M27.4589 21.8008C26.8065 21.8008 26.1521 21.8008 25.4997 21.8008H22.0757H22.0236C21.9771 21.8008 21.9325 21.8008 21.8861 21.8008C21.4009 21.8136 21.0663 22.1166 21.0551 22.5537C21.0496 22.763 21.1258 22.9558 21.2652 23.0991C21.4195 23.2552 21.6463 23.3433 21.9009 23.3433C22.8582 23.3433 23.8156 23.3433 24.771 23.3433C25.6688 23.3433 26.5667 23.3433 27.4645 23.3433C27.9961 23.3433 28.3456 23.0476 28.3568 22.5904C28.3623 22.3792 28.2917 22.1938 28.1523 22.0524C28.0389 21.9385 27.8288 21.8026 27.4589 21.8008Z" fill="black"/>
<path d="M14.5398 20.9487C15.2611 20.115 15.4265 19.1197 15.0157 18.073L14.9581 17.9243C14.854 17.6544 14.7462 17.3752 14.5993 17.0961C14.6012 17.0943 14.603 17.0924 14.6049 17.0906C14.6086 17.0869 14.6123 17.0833 14.6142 17.0796C14.6644 17.109 14.7146 17.1383 14.7647 17.1677C15.0585 17.3385 15.3354 17.5001 15.5696 17.7003C16.0604 18.1189 16.6682 18.3228 17.2835 18.2787C17.8691 18.2365 18.4063 17.9647 18.7966 17.5166C19.187 17.0686 19.358 16.5232 19.3338 15.8052C19.306 14.9825 18.9119 14.2167 18.252 13.7007C17.6125 13.2013 16.7965 13.0066 16.0139 13.1627C15.4414 13.2784 14.9042 13.5208 14.4283 13.7356C14.4227 13.7301 14.4171 13.7246 14.4116 13.7191L14.4729 13.6163C14.6644 13.2986 14.8447 12.9993 15.0677 12.7422C15.605 12.1215 15.7723 11.297 15.5139 10.5331C15.2704 9.81507 14.6811 9.28988 13.9376 9.12828C12.7925 8.88038 11.8017 9.19439 11.073 10.0373C10.3518 10.871 10.1882 11.8662 10.599 12.9148L10.6474 13.0397C10.757 13.3206 10.8704 13.6089 11.0154 13.8972C11.0154 13.8972 11.0117 13.9009 11.0098 13.9009C11.0098 13.9009 11.0061 13.9046 11.0043 13.9064L10.8909 13.844C10.6065 13.6897 10.3388 13.5447 10.1213 13.3573C9.33129 12.6761 8.49294 12.5181 7.62671 12.8872C6.74375 13.2655 6.27718 14.0001 6.27718 15.0155C6.28089 15.919 6.67311 16.7454 7.35532 17.2853C8.0115 17.8031 8.86657 17.9941 9.70492 17.8086C10.2105 17.6984 10.679 17.4836 11.1325 17.2779L11.1846 17.2559C11.1846 17.2559 11.192 17.265 11.1957 17.2687C11.1678 17.3146 11.1418 17.3605 11.1139 17.4064C10.9373 17.7058 10.7701 17.9886 10.5619 18.2236C10.0116 18.8443 9.8369 19.6743 10.0934 20.4437C10.3332 21.1654 10.9243 21.6943 11.6735 21.8577C11.9281 21.9128 12.1754 21.9403 12.4151 21.9403C13.2479 21.9403 13.9729 21.6043 14.5398 20.9487ZM15.1886 15.0761C15.2332 15.0578 15.2778 15.0376 15.3224 15.0192C15.5957 14.9035 15.8763 14.7823 16.157 14.6997C16.5864 14.573 17.0419 14.685 17.3765 14.999C17.7203 15.3204 17.8598 15.7776 17.7501 16.222C17.6906 16.4626 17.5196 16.648 17.2909 16.7197C17.079 16.7858 16.8578 16.7399 16.6868 16.5911C16.315 16.2698 15.8243 15.8841 15.2239 15.6454L15.1886 15.078V15.0761ZM13.2349 17.8398C13.2554 17.8894 13.2777 17.939 13.2981 17.9886C13.4208 18.275 13.5472 18.5707 13.6215 18.8663C13.7275 19.2832 13.6085 19.7019 13.2981 20.014C12.9765 20.3372 12.5192 20.4694 12.075 20.3666C11.8315 20.3115 11.6381 20.1426 11.5619 19.9149C11.5229 19.7992 11.4839 19.5733 11.6642 19.3585C12.075 18.8663 12.4375 18.4091 12.6549 17.8729L13.2349 17.838V17.8398ZM12.8092 14.6483H12.8129C13.0397 14.6483 13.2554 14.7383 13.4171 14.8999C13.5807 15.0633 13.6699 15.28 13.6662 15.5077C13.6643 15.7262 13.5732 15.9355 13.4078 16.0935C13.2423 16.2532 13.0286 16.3395 12.8055 16.3377C12.5731 16.3359 12.3575 16.2441 12.1958 16.0806C12.0341 15.919 11.9486 15.7042 11.9504 15.4783C11.956 15.0192 12.3408 14.6483 12.8092 14.6483ZM12.3761 13.1443C12.3519 13.0837 12.3259 13.0231 12.2999 12.9625C12.1679 12.654 12.0322 12.3363 11.9765 12.0223C11.9021 11.6092 12.0378 11.2107 12.3519 10.9279C12.5955 10.7075 12.9059 10.5937 13.2368 10.5937C13.3687 10.5937 13.5063 10.612 13.642 10.6488C13.8372 10.702 13.9915 10.8544 14.0547 11.0583C14.1197 11.2639 14.077 11.4806 13.9431 11.6367C13.5862 12.0517 13.194 12.5347 12.9617 13.1058L12.3761 13.1425V13.1443ZM10.4262 15.8933C10.3146 15.9392 10.205 15.9888 10.099 16.0365C9.65473 16.2367 9.26995 16.4093 8.81638 16.301C8.48922 16.222 8.19738 16.0053 8.01707 15.7042C7.83676 15.403 7.78471 15.0615 7.87208 14.7419C7.93528 14.5106 8.1063 14.3306 8.33308 14.2627C8.39442 14.2443 8.45762 14.2351 8.51711 14.2351C8.66024 14.2351 8.79965 14.2865 8.91305 14.3839C9.32014 14.7328 9.80716 15.111 10.3908 15.3406L10.4262 15.8933Z" fill="black"/>
</svg>
