<svg width="32" height="33" viewBox="0 0 32 33" fill="none" xmlns="http://www.w3.org/2000/svg">
<path d="M16 3.76367C13.4288 3.76367 10.9154 4.52611 8.77759 5.95457C6.63975 7.38303 4.97351 9.41335 3.98957 11.7888C3.00563 14.1642 2.74819 16.7781 3.2498 19.2998C3.75141 21.8216 4.98953 24.138 6.80762 25.9561C8.6257 27.7741 10.9421 29.0123 13.4638 29.5139C15.9856 30.0155 18.5995 29.758 20.9749 28.7741C23.3503 27.7902 25.3807 26.1239 26.8091 23.9861C28.2376 21.8482 29 19.3348 29 16.7637C28.9964 13.317 27.6256 10.0125 25.1884 7.5753C22.7512 5.13812 19.4467 3.76731 16 3.76367ZM15 10.7637C15 10.4985 15.1054 10.2441 15.2929 10.0566C15.4804 9.86903 15.7348 9.76367 16 9.76367C16.2652 9.76367 16.5196 9.86903 16.7071 10.0566C16.8946 10.2441 17 10.4985 17 10.7637V17.7637C17 18.0289 16.8946 18.2832 16.7071 18.4708C16.5196 18.6583 16.2652 18.7637 16 18.7637C15.7348 18.7637 15.4804 18.6583 15.2929 18.4708C15.1054 18.2832 15 18.0289 15 17.7637V10.7637ZM16 23.7637C15.7033 23.7637 15.4133 23.6757 15.1667 23.5109C14.92 23.3461 14.7277 23.1118 14.6142 22.8377C14.5007 22.5636 14.4709 22.262 14.5288 21.971C14.5867 21.6801 14.7296 21.4128 14.9393 21.203C15.1491 20.9932 15.4164 20.8504 15.7074 20.7925C15.9983 20.7346 16.2999 20.7643 16.574 20.8779C16.8481 20.9914 17.0824 21.1836 17.2472 21.4303C17.412 21.677 17.5 21.967 17.5 22.2637C17.5 22.6615 17.342 23.043 17.0607 23.3243C16.7794 23.6056 16.3978 23.7637 16 23.7637Z" fill="white"/>
</svg>
