<svg width="33" height="33" viewBox="0 0 33 33" fill="none" xmlns="http://www.w3.org/2000/svg">
<path d="M27.6195 13.5366L17.6195 23.5366C17.4802 23.6764 17.3146 23.7874 17.1323 23.8631C16.9499 23.9388 16.7545 23.9778 16.557 23.9778C16.3596 23.9778 16.1641 23.9388 15.9818 23.8631C15.7995 23.7874 15.6339 23.6764 15.4945 23.5366L5.49455 13.5366C5.21275 13.2548 5.05444 12.8726 5.05444 12.4741C5.05444 12.0756 5.21275 11.6934 5.49455 11.4116C5.77634 11.1298 6.15853 10.9715 6.55705 10.9715C6.95556 10.9715 7.33775 11.1298 7.61955 11.4116L16.5583 20.3503L25.497 11.4103C25.7788 11.1285 26.161 10.9702 26.5595 10.9702C26.9581 10.9702 27.3403 11.1285 27.622 11.4103C27.9038 11.6921 28.0621 12.0743 28.0621 12.4728C28.0621 12.8713 27.9038 13.2535 27.622 13.5353L27.6195 13.5366Z" fill="black"/>
</svg>
