<svg width="33" height="33" viewBox="0 0 33 33" fill="none" xmlns="http://www.w3.org/2000/svg">
<path d="M27.5575 6.61133V12.6113C27.5575 12.8765 27.4521 13.1309 27.2646 13.3184C27.0771 13.506 26.8227 13.6113 26.5575 13.6113C26.2923 13.6113 26.0379 13.506 25.8504 13.3184C25.6629 13.1309 25.5575 12.8765 25.5575 12.6113V9.02508L19.265 15.3188C19.0774 15.5065 18.8229 15.6119 18.5575 15.6119C18.2921 15.6119 18.0376 15.5065 17.85 15.3188C17.6624 15.1312 17.5569 14.8767 17.5569 14.6113C17.5569 14.346 17.6624 14.0915 17.85 13.9038L24.1437 7.61133H20.5575C20.2923 7.61133 20.0379 7.50597 19.8504 7.31843C19.6629 7.1309 19.5575 6.87654 19.5575 6.61133C19.5575 6.34611 19.6629 6.09176 19.8504 5.90422C20.0379 5.71669 20.2923 5.61133 20.5575 5.61133H26.5575C26.8227 5.61133 27.0771 5.71669 27.2646 5.90422C27.4521 6.09176 27.5575 6.34611 27.5575 6.61133ZM13.85 17.9038L7.5575 24.1976V20.6113C7.5575 20.3461 7.45214 20.0918 7.2646 19.9042C7.07707 19.7167 6.82271 19.6113 6.5575 19.6113C6.29228 19.6113 6.03792 19.7167 5.85039 19.9042C5.66285 20.0918 5.5575 20.3461 5.5575 20.6113V26.6113C5.5575 26.8765 5.66285 27.1309 5.85039 27.3184C6.03792 27.506 6.29228 27.6113 6.5575 27.6113H12.5575C12.8227 27.6113 13.0771 27.506 13.2646 27.3184C13.4521 27.1309 13.5575 26.8765 13.5575 26.6113C13.5575 26.3461 13.4521 26.0918 13.2646 25.9042C13.0771 25.7167 12.8227 25.6113 12.5575 25.6113H8.97124L15.265 19.3188C15.4526 19.1312 15.5581 18.8767 15.5581 18.6113C15.5581 18.346 15.4526 18.0915 15.265 17.9038C15.0774 17.7162 14.8229 17.6108 14.5575 17.6108C14.2921 17.6108 14.0376 17.7162 13.85 17.9038Z" fill="black"/>
</svg>
