<svg width="32" height="32" viewBox="0 0 32 32" fill="none" xmlns="http://www.w3.org/2000/svg">
<path d="M28.345 8.62507C28.2843 8.47514 28.1882 8.34217 28.0649 8.23754C27.9415 8.13292 27.7947 8.05977 27.6369 8.02438C27.479 7.98898 27.315 7.99239 27.1588 8.03431C27.0026 8.07623 26.8589 8.15541 26.74 8.26507L21.7025 12.9138L19.5487 12.4513L19.0862 10.2976L23.735 5.26007C23.8447 5.14119 23.9238 4.99748 23.9658 4.84127C24.0077 4.68507 24.0111 4.52102 23.9757 4.36321C23.9403 4.2054 23.8671 4.05852 23.7625 3.93519C23.6579 3.81185 23.5249 3.71573 23.375 3.65507C22.0087 3.10236 20.5275 2.89367 19.0616 3.04734C17.5958 3.20101 16.1901 3.71233 14.9681 4.53638C13.7461 5.36043 12.7452 6.47199 12.0533 7.77338C11.3614 9.07478 10.9997 10.5262 11 12.0001C10.9984 13.2447 11.2537 14.4762 11.75 15.6176L4.22375 22.1251C4.205 22.1401 4.1875 22.1576 4.17 22.1738C3.41977 22.9241 2.99829 23.9416 2.99829 25.0026C2.99829 25.5279 3.10177 26.0481 3.30281 26.5335C3.50385 27.0188 3.79852 27.4598 4.17 27.8313C4.54147 28.2028 4.98248 28.4975 5.46784 28.6985C5.9532 28.8996 6.4734 29.003 6.99875 29.003C8.05973 29.003 9.07727 28.5816 9.8275 27.8313C9.84375 27.8151 9.86125 27.7963 9.87625 27.7788L16.3825 20.2501C17.753 20.8517 19.252 21.102 20.7436 20.9783C22.2353 20.8547 23.6725 20.3609 24.9253 19.5418C26.178 18.7227 27.2067 17.6041 27.9182 16.2872C28.6297 14.9703 29.0015 13.4968 29 12.0001C29.0019 10.8433 28.7795 9.69713 28.345 8.62507ZM20 19.0001C18.8163 18.9984 17.6523 18.6974 16.6162 18.1251C16.4155 18.0142 16.1828 17.9756 15.957 18.0159C15.7313 18.0562 15.5262 18.1729 15.3762 18.3463L8.38875 26.4388C8.01062 26.7981 7.50712 26.9954 6.9856 26.9887C6.46408 26.982 5.96579 26.7719 5.59699 26.4031C5.22819 26.0343 5.01805 25.536 5.01137 25.0145C5.00469 24.4929 5.20201 23.9894 5.56125 23.6113L13.6475 16.6251C13.8213 16.475 13.9381 16.2697 13.9784 16.0437C14.0187 15.8177 13.98 15.5847 13.8687 15.3838C13.2313 14.2309 12.9321 12.9214 13.0057 11.606C13.0792 10.2907 13.5224 9.02272 14.2844 7.94801C15.0464 6.8733 16.0963 6.03544 17.3132 5.53076C18.5301 5.02607 19.8648 4.87506 21.1637 5.09507L17.2637 9.32132C17.1552 9.43904 17.0766 9.58109 17.0344 9.73553C16.9922 9.88997 16.9877 10.0523 17.0212 10.2088L17.7287 13.5001C17.7692 13.6883 17.8632 13.8609 17.9993 13.997C18.1355 14.1332 18.308 14.2271 18.4962 14.2676L21.79 14.9751C21.9465 15.0086 22.1089 15.0041 22.2633 14.9619C22.4177 14.9197 22.5598 14.8411 22.6775 14.7326L26.9037 10.8326C27.0722 11.8363 27.02 12.8647 26.7508 13.8463C26.4816 14.8278 26.0017 15.7389 25.3447 16.5163C24.6876 17.2936 23.8692 17.9184 22.9462 18.3474C22.0232 18.7763 21.0178 18.999 20 19.0001Z" fill="black"/>
</svg>
