<svg width="50" height="50" viewBox="0 0 50 50" fill="none" xmlns="http://www.w3.org/2000/svg">
<g clip-path="url(#clip0_82_833)">
<path d="M29.9467 24.7772C29.9897 24.7772 30.0273 24.7718 30.0649 24.7718C32.1219 24.7718 34.0233 25.4378 35.5701 26.5604C36.7678 25.0833 37.4875 23.1981 37.4875 21.1518C37.4875 16.3931 33.6312 12.5367 28.8725 12.5367C25.043 12.5367 21.7989 15.0396 20.6818 18.4985C24.6563 19.0356 28.04 21.4311 29.9467 24.7772Z" fill="#F4AF3B"/>
<path fill-rule="evenodd" clip-rule="evenodd" d="M19.6245 18.1571C20.8852 14.2535 24.5463 11.4257 28.8725 11.4257C34.2449 11.4257 38.5987 15.7795 38.5987 21.1518C38.5987 23.4627 37.7851 25.593 36.4332 27.2602C36.0612 27.7189 35.3955 27.8065 34.9175 27.4597C33.5576 26.4728 31.8903 25.8872 30.0847 25.883C30.0845 25.883 30.0844 25.883 30.0843 25.883L30.0813 25.8832C30.0609 25.8846 30.0079 25.8883 29.9467 25.8883C29.5475 25.8883 29.179 25.6742 28.9813 25.3273C27.2399 22.2712 24.1521 20.0887 20.533 19.5997C20.2068 19.5556 19.917 19.3692 19.7416 19.0907C19.5662 18.8122 19.5233 18.4703 19.6245 18.1571ZM22.2344 17.6626C25.7353 18.5163 28.7049 20.7155 30.579 23.6732C32.2846 23.756 33.8834 24.2485 35.2797 25.0505C35.9753 23.9142 36.3765 22.5784 36.3765 21.1518C36.3765 17.0068 33.0176 13.6479 28.8725 13.6479C25.992 13.6479 23.4892 15.2749 22.2344 17.6626Z" fill="#374553"/>
<path fill-rule="evenodd" clip-rule="evenodd" d="M28.8725 5.26514C29.4861 5.26514 29.9836 5.7626 29.9836 6.37625V8.62132C29.9836 9.23497 29.4861 9.73243 28.8725 9.73243C28.2588 9.73243 27.7614 9.23497 27.7614 8.62132V6.37625C27.7614 5.7626 28.2588 5.26514 28.8725 5.26514Z" fill="#374553"/>
<path fill-rule="evenodd" clip-rule="evenodd" d="M17.6389 9.92088C18.0721 9.48623 18.7756 9.48504 19.2103 9.91822L20.8001 11.5027C21.2347 11.9358 21.2359 12.6394 20.8027 13.074C20.3696 13.5087 19.666 13.5098 19.2314 13.0767L17.6416 11.4922C17.2069 11.059 17.2057 10.3555 17.6389 9.92088Z" fill="#374553"/>
<path fill-rule="evenodd" clip-rule="evenodd" d="M40.2865 21.1464C40.2865 20.5327 40.784 20.0353 41.3976 20.0353H43.648C44.2617 20.0353 44.7592 20.5327 44.7592 21.1464C44.7592 21.76 44.2617 22.2575 43.648 22.2575H41.3976C40.784 22.2575 40.2865 21.76 40.2865 21.1464Z" fill="#374553"/>
<path fill-rule="evenodd" clip-rule="evenodd" d="M40.106 9.92088C40.5391 10.3555 40.538 11.059 40.1033 11.4922L38.5135 13.0767C38.0788 13.5098 37.3753 13.5087 36.9422 13.074C36.509 12.6394 36.5102 11.9358 36.9448 11.5027L38.5346 9.91822C38.9693 9.48504 39.6728 9.48623 40.106 9.92088Z" fill="#374553"/>
<path d="M30.0649 24.7718C30.0219 24.7718 29.9843 24.7772 29.9467 24.7772C27.7769 20.9584 23.6788 18.3804 18.9738 18.3804C12.0023 18.3804 6.35205 24.0306 6.35205 31.0022C6.35205 37.9737 12.0023 43.624 18.9738 43.624H29.6406V43.6025C29.7802 43.6078 29.9253 43.624 30.0649 43.624C35.2694 43.624 39.491 39.4024 39.491 34.1979C39.491 28.9934 35.2694 24.7718 30.0649 24.7718Z" fill="white"/>
<path fill-rule="evenodd" clip-rule="evenodd" d="M5.24097 31.0021C5.24097 23.4169 11.3887 17.2692 18.9739 17.2692C23.8639 17.2692 28.1492 19.8287 30.5798 23.673C36.1589 23.9416 40.6021 28.5523 40.6021 34.1978C40.6021 40.0159 35.8831 44.735 30.0649 44.735C29.9986 44.735 29.8893 44.7299 29.7932 44.7246C29.7433 44.7314 29.6924 44.735 29.6406 44.735H18.9739C11.3887 44.735 5.24097 38.5872 5.24097 31.0021ZM29.4232 42.5128H18.9739C12.616 42.5128 7.46319 37.3599 7.46319 31.0021C7.46319 24.6442 12.616 19.4914 18.9739 19.4914C23.262 19.4914 26.9997 21.8396 28.9807 25.326C29.1782 25.6735 29.5471 25.8882 29.9468 25.8882C29.9821 25.8882 30.0123 25.887 30.034 25.8858C30.0541 25.8847 30.0735 25.8834 30.0803 25.8829C30.0805 25.8829 30.0806 25.8829 30.0808 25.8829C34.6644 25.8914 38.3799 29.6123 38.3799 34.1978C38.3799 38.7886 34.6558 42.5128 30.0649 42.5128C29.9969 42.5128 29.9706 42.5104 29.9298 42.5068C29.8865 42.5029 29.8268 42.4976 29.6833 42.4921C29.5953 42.4887 29.5081 42.4958 29.4232 42.5128Z" fill="#374553"/>
</g>
<defs>
<clipPath id="clip0_82_833">
<rect width="39.4444" height="39.3961" fill="white" transform="translate(5.27783 5.302)"/>
</clipPath>
</defs>
</svg>
