<svg width="33" height="33" viewBox="0 0 33 33" fill="none" xmlns="http://www.w3.org/2000/svg">
<path d="M27.992 19.0265C28.0233 19.154 28.0293 19.2865 28.0094 19.4163C27.9896 19.5462 27.9444 19.6708 27.8764 19.7832C27.8083 19.8956 27.7188 19.9934 27.613 20.0712C27.5071 20.149 27.387 20.2051 27.2595 20.2365L24.1795 20.9865L24.987 24.0002C25.021 24.1271 25.0297 24.2594 25.0125 24.3897C24.9954 24.5199 24.9527 24.6455 24.887 24.7593C24.8213 24.8731 24.7338 24.9728 24.6296 25.0527C24.5253 25.1326 24.4064 25.1913 24.2795 25.2252C24.1953 25.2495 24.1083 25.2629 24.0207 25.2652C23.8007 25.265 23.5869 25.1923 23.4125 25.0583C23.238 24.9242 23.1126 24.7364 23.0557 24.524L22.0907 20.924L17.0207 17.9977V23.8515L19.7282 26.5577C19.8211 26.6506 19.8948 26.7609 19.9451 26.8823C19.9954 27.0037 20.0213 27.1338 20.0213 27.2652C20.0213 27.3966 19.9954 27.5267 19.9451 27.6481C19.8948 27.7695 19.8211 27.8798 19.7282 27.9727C19.6353 28.0656 19.525 28.1393 19.4036 28.1896C19.2822 28.2399 19.1521 28.2658 19.0207 28.2658C18.8893 28.2658 18.7592 28.2399 18.6378 28.1896C18.5164 28.1393 18.4061 28.0656 18.3132 27.9727L16.0207 25.679L13.7282 27.9727C13.6353 28.0656 13.525 28.1393 13.4036 28.1896C13.2822 28.2399 13.1521 28.2658 13.0207 28.2658C12.8893 28.2658 12.7592 28.2399 12.6378 28.1896C12.5164 28.1393 12.4061 28.0656 12.3132 27.9727C12.2203 27.8798 12.1466 27.7695 12.0963 27.6481C12.046 27.5267 12.0201 27.3966 12.0201 27.2652C12.0201 27.1338 12.046 27.0037 12.0963 26.8823C12.1466 26.7609 12.2203 26.6506 12.3132 26.5577L15.0207 23.8515V17.9977L9.95195 20.924L8.98695 24.524C8.92998 24.7367 8.80439 24.9246 8.62968 25.0586C8.45497 25.1927 8.2409 25.2653 8.0207 25.2652C7.93295 25.2651 7.84558 25.2537 7.7607 25.2315C7.63379 25.1975 7.51482 25.1389 7.41057 25.0589C7.30632 24.979 7.21885 24.8793 7.15314 24.7655C7.08744 24.6518 7.0448 24.5262 7.02765 24.3959C7.0105 24.2657 7.01918 24.1333 7.0532 24.0065L7.8607 20.9927L4.7807 20.2427C4.52311 20.1794 4.30123 20.0163 4.16385 19.7894C4.02648 19.5625 3.98488 19.2903 4.0482 19.0327C4.11152 18.7751 4.27458 18.5532 4.5015 18.4159C4.72842 18.2785 5.00061 18.2369 5.2582 18.3002L8.93945 19.204L14.0207 16.2652L8.9407 13.3327L5.25945 14.2365C5.18135 14.2558 5.10117 14.2654 5.0207 14.2652C4.77619 14.2654 4.54009 14.176 4.35704 14.0138C4.17399 13.8517 4.05667 13.6282 4.02727 13.3854C3.99787 13.1427 4.05842 12.8976 4.19748 12.6965C4.33654 12.4954 4.54447 12.3522 4.78195 12.294L7.86195 11.544L7.05445 8.52395C6.98583 8.26769 7.02182 7.99466 7.1545 7.76493C7.28718 7.53519 7.50569 7.36758 7.76195 7.29895C8.01822 7.23033 8.29125 7.26632 8.52098 7.399C8.75071 7.53168 8.91833 7.75019 8.98695 8.00645L9.95195 11.6065L15.0207 14.5327V8.67895L12.3132 5.9727C12.1256 5.78506 12.0201 5.53057 12.0201 5.2652C12.0201 5.13381 12.046 5.0037 12.0963 4.88231C12.1466 4.76091 12.2203 4.65061 12.3132 4.5577C12.4061 4.46479 12.5164 4.39109 12.6378 4.34081C12.7592 4.29053 12.8893 4.26465 13.0207 4.26465C13.2861 4.26465 13.5406 4.37006 13.7282 4.5577L16.0207 6.85145L18.3132 4.5577C18.5008 4.37006 18.7553 4.26465 19.0207 4.26465C19.2861 4.26465 19.5406 4.37006 19.7282 4.5577C19.9158 4.74535 20.0213 4.99984 20.0213 5.2652C20.0213 5.53057 19.9158 5.78506 19.7282 5.9727L17.0207 8.67895V14.5327L22.0895 11.6065L23.0545 8.00645C23.1231 7.75019 23.2907 7.53168 23.5204 7.399C23.7502 7.26632 24.0232 7.23033 24.2795 7.29895C24.5357 7.36758 24.7542 7.53519 24.8869 7.76493C25.0196 7.99466 25.0556 8.26769 24.987 8.52395L24.1795 11.5377L27.2595 12.2877C27.5036 12.3398 27.7193 12.4814 27.8644 12.6845C28.0095 12.8877 28.0733 13.1377 28.0434 13.3855C28.0135 13.6333 27.892 13.861 27.7027 14.0238C27.5135 14.1865 27.2702 14.2727 27.0207 14.2652C26.9402 14.2654 26.8601 14.2558 26.782 14.2365L23.1007 13.3327L18.0207 16.2652L23.1007 19.1977L26.782 18.294C26.9095 18.2626 27.042 18.2566 27.1718 18.2765C27.3017 18.2963 27.4263 18.3415 27.5387 18.4095C27.6511 18.4776 27.7489 18.5671 27.8267 18.6729C27.9045 18.7788 27.9606 18.8989 27.992 19.0265Z" fill="black"/>
</svg>
