<svg width="33" height="32" viewBox="0 0 33 32" fill="none" xmlns="http://www.w3.org/2000/svg">
<path d="M16.3557 3C13.7846 3 11.2711 3.76244 9.13331 5.1909C6.99547 6.61935 5.32922 8.64968 4.34528 11.0251C3.36135 13.4006 3.1039 16.0144 3.60551 18.5362C4.10712 21.0579 5.34525 23.3743 7.16333 25.1924C8.98141 27.0105 11.2978 28.2486 13.8195 28.7502C16.3413 29.2518 18.9552 28.9944 21.3306 28.0104C23.706 27.0265 25.7364 25.3603 27.1648 23.2224C28.5933 21.0846 29.3557 18.5712 29.3557 16C29.3521 12.5533 27.9813 9.24882 25.5441 6.81163C23.1069 4.37445 19.8024 3.00364 16.3557 3ZM15.3557 10C15.3557 9.73478 15.4611 9.48043 15.6486 9.29289C15.8361 9.10536 16.0905 9 16.3557 9C16.6209 9 16.8753 9.10536 17.0628 9.29289C17.2504 9.48043 17.3557 9.73478 17.3557 10V17C17.3557 17.2652 17.2504 17.5196 17.0628 17.7071C16.8753 17.8946 16.6209 18 16.3557 18C16.0905 18 15.8361 17.8946 15.6486 17.7071C15.4611 17.5196 15.3557 17.2652 15.3557 17V10ZM16.3557 23C16.059 23 15.769 22.912 15.5224 22.7472C15.2757 22.5824 15.0834 22.3481 14.9699 22.074C14.8564 21.7999 14.8267 21.4983 14.8845 21.2074C14.9424 20.9164 15.0853 20.6491 15.2951 20.4393C15.5048 20.2296 15.7721 20.0867 16.0631 20.0288C16.3541 19.9709 16.6557 20.0007 16.9297 20.1142C17.2038 20.2277 17.4381 20.42 17.6029 20.6666C17.7677 20.9133 17.8557 21.2033 17.8557 21.5C17.8557 21.8978 17.6977 22.2794 17.4164 22.5607C17.1351 22.842 16.7535 23 16.3557 23Z" fill="#F5C000"/>
</svg>
