<svg width="50" height="50" viewBox="0 0 50 50" fill="none" xmlns="http://www.w3.org/2000/svg">
<g clip-path="url(#clip0_82_826)">
<path fill-rule="evenodd" clip-rule="evenodd" d="M6.75 21.9639C6.75 14.1391 13.0919 7.79724 20.9167 7.79724C25.9682 7.79724 30.3942 10.445 32.8998 14.4202C37.3836 14.6281 41.1414 17.5593 42.5951 21.5867C42.8035 22.1639 42.5044 22.8007 41.9272 23.009C41.35 23.2174 40.7132 22.9183 40.5049 22.3411C39.304 19.014 36.1342 16.637 32.4041 16.6306C32.4035 16.6306 32.4028 16.6307 32.4021 16.6307L32.3999 16.6309C32.3915 16.6315 32.3735 16.6327 32.3548 16.6337C32.3329 16.6349 32.3023 16.6361 32.2667 16.6361C31.867 16.6361 31.4981 16.4215 31.3006 16.0739C29.245 12.4563 25.3665 10.0195 20.9167 10.0195C14.3192 10.0195 8.97222 15.3664 8.97222 21.9639C8.97222 22.5776 8.47476 23.075 7.86111 23.075C7.24746 23.075 6.75 22.5776 6.75 21.9639Z" fill="#374553"/>
<path fill-rule="evenodd" clip-rule="evenodd" d="M6.75 28.3417C6.75 27.7281 7.24746 27.2306 7.86111 27.2306H42.1389C42.7525 27.2306 43.25 27.7281 43.25 28.3417C43.25 28.9554 42.7525 29.4528 42.1389 29.4528H7.86111C7.24746 29.4528 6.75 28.9554 6.75 28.3417Z" fill="#374553"/>
<path fill-rule="evenodd" clip-rule="evenodd" d="M31.6167 34.7139C31.6167 34.1002 32.1142 33.6028 32.7278 33.6028H42.1389C42.7526 33.6028 43.25 34.1002 43.25 34.7139C43.25 35.3275 42.7526 35.825 42.1389 35.825H32.7278C32.1142 35.825 31.6167 35.3275 31.6167 34.7139Z" fill="#374553"/>
<path fill-rule="evenodd" clip-rule="evenodd" d="M6.75 34.7139C6.75 34.1002 7.24746 33.6028 7.86111 33.6028H29.2889C29.9025 33.6028 30.4 34.1002 30.4 34.7139C30.4 35.3275 29.9025 35.825 29.2889 35.825H7.86111C7.24746 35.825 6.75 35.3275 6.75 34.7139Z" fill="#374553"/>
<path fill-rule="evenodd" clip-rule="evenodd" d="M18.1555 41.0917C18.1555 40.4781 18.653 39.9806 19.2666 39.9806H42.1389C42.7525 39.9806 43.25 40.4781 43.25 41.0917C43.25 41.7054 42.7525 42.2028 42.1389 42.2028H19.2666C18.653 42.2028 18.1555 41.7054 18.1555 41.0917Z" fill="#374553"/>
<path fill-rule="evenodd" clip-rule="evenodd" d="M6.75 41.0917C6.75 40.4781 7.24746 39.9806 7.86111 39.9806H15.6222C16.2359 39.9806 16.7333 40.4781 16.7333 41.0917C16.7333 41.7054 16.2359 42.2028 15.6222 42.2028H7.86111C7.24746 42.2028 6.75 41.7054 6.75 41.0917Z" fill="#374553"/>
</g>
<defs>
<clipPath id="clip0_82_826">
<rect width="36.5" height="34.4056" fill="white" transform="translate(6.75 7.79724)"/>
</clipPath>
</defs>
</svg>
