<svg width="33" height="33" viewBox="0 0 33 33" fill="none" xmlns="http://www.w3.org/2000/svg">
<path d="M15.5798 15.3948L27.5798 15.3948C27.845 15.3948 28.0994 15.5001 28.2869 15.6877C28.4745 15.8752 28.5798 16.1296 28.5798 16.3948C28.5798 16.66 28.4745 16.9143 28.2869 17.1019C28.0994 17.2894 27.845 17.3948 27.5798 17.3948L15.5798 17.3948C15.3146 17.3948 15.0603 17.2894 14.8727 17.1019C14.6852 16.9143 14.5798 16.66 14.5798 16.3948C14.5798 16.1296 14.6852 15.8752 14.8727 15.6877C15.0603 15.5001 15.3146 15.3948 15.5798 15.3948ZM24.5798 7.39477C24.5798 7.65999 24.6852 7.91435 24.8727 8.10188C25.0603 8.28942 25.3146 8.39477 25.5798 8.39477L27.5798 8.39477C27.845 8.39477 28.0994 8.28942 28.2869 8.10188C28.4745 7.91435 28.5798 7.65999 28.5798 7.39477C28.5798 7.12956 28.4745 6.8752 28.2869 6.68767C28.0994 6.50013 27.845 6.39477 27.5798 6.39477L25.5798 6.39477C25.3146 6.39477 25.0603 6.50013 24.8727 6.68767C24.6852 6.8752 24.5798 7.12956 24.5798 7.39477ZM20.5798 4.39477L20.5798 6.39477L5.57983 6.39478C5.31462 6.39478 5.06026 6.50013 4.87273 6.68767C4.68519 6.8752 4.57983 7.12956 4.57983 7.39478C4.57983 7.65999 4.68519 7.91435 4.87273 8.10188C5.06026 8.28942 5.31462 8.39478 5.57983 8.39478L20.5798 8.39477L20.5798 10.3948C20.5798 10.66 20.6852 10.9143 20.8727 11.1019C21.0603 11.2894 21.3146 11.3948 21.5798 11.3948C21.845 11.3948 22.0994 11.2894 22.2869 11.1019C22.4745 10.9143 22.5798 10.66 22.5798 10.3948L22.5798 4.39477C22.5798 4.12956 22.4745 3.8752 22.2869 3.68767C22.0994 3.50013 21.845 3.39477 21.5798 3.39477C21.3146 3.39477 21.0603 3.50013 20.8727 3.68767C20.6852 3.8752 20.5798 4.12956 20.5798 4.39477ZM20.5798 25.3948C20.5798 25.66 20.6852 25.9143 20.8727 26.1019C21.0603 26.2894 21.3146 26.3948 21.5798 26.3948L27.5798 26.3948C27.8451 26.3948 28.0994 26.2894 28.2869 26.1019C28.4745 25.9143 28.5798 25.66 28.5798 25.3948C28.5798 25.1296 28.4745 24.8752 28.2869 24.6877C28.0994 24.5001 27.8451 24.3948 27.5798 24.3948L21.5798 24.3948C21.3146 24.3948 21.0603 24.5001 20.8727 24.6877C20.6852 24.8752 20.5798 25.1296 20.5798 25.3948ZM16.5798 22.3948L16.5798 24.3948L5.57983 24.3948C5.31462 24.3948 5.06026 24.5001 4.87273 24.6877C4.68519 24.8752 4.57983 25.1296 4.57983 25.3948C4.57983 25.66 4.68519 25.9143 4.87273 26.1019C5.06026 26.2894 5.31462 26.3948 5.57983 26.3948L16.5798 26.3948L16.5798 28.3948C16.5798 28.66 16.6852 28.9143 16.8727 29.1019C17.0603 29.2894 17.3146 29.3948 17.5798 29.3948C17.8451 29.3948 18.0994 29.2894 18.2869 29.1019C18.4745 28.9143 18.5798 28.66 18.5798 28.3948L18.5798 22.3948C18.5798 22.1296 18.4745 21.8752 18.2869 21.6877C18.0994 21.5001 17.8451 21.3948 17.5798 21.3948C17.3146 21.3948 17.0603 21.5001 16.8727 21.6877C16.6852 21.8752 16.5798 22.1296 16.5798 22.3948ZM10.5798 13.3948L10.5798 15.3948L5.57983 15.3948C5.31462 15.3948 5.06026 15.5001 4.87273 15.6877C4.68519 15.8752 4.57983 16.1296 4.57983 16.3948C4.57983 16.66 4.68519 16.9143 4.87273 17.1019C5.06026 17.2894 5.31462 17.3948 5.57983 17.3948L10.5798 17.3948L10.5798 19.3948C10.5798 19.66 10.6852 19.9143 10.8727 20.1019C11.0603 20.2894 11.3146 20.3948 11.5798 20.3948C11.8451 20.3948 12.0994 20.2894 12.2869 20.1019C12.4745 19.9143 12.5798 19.66 12.5798 19.3948L12.5798 13.3948C12.5798 13.1296 12.4745 12.8752 12.2869 12.6877C12.0994 12.5001 11.845 12.3948 11.5798 12.3948C11.3146 12.3948 11.0603 12.5001 10.8727 12.6877C10.6852 12.8752 10.5798 13.1296 10.5798 13.3948Z" fill="black"/>
</svg>
