<svg width="32" height="32" viewBox="0 0 32 32" fill="none" xmlns="http://www.w3.org/2000/svg">
<path d="M14.2925 19.2924L26.2925 7.29236C26.3854 7.19945 26.4957 7.12575 26.6171 7.07547C26.7385 7.02519 26.8686 6.99931 27 6.99931C27.1314 6.99931 27.2615 7.02519 27.3829 7.07547C27.5043 7.12575 27.6146 7.19945 27.7075 7.29236C27.8004 7.38527 27.8741 7.49557 27.9244 7.61697C27.9747 7.73836 28.0006 7.86847 28.0006 7.99986C28.0006 8.13126 27.9747 8.26137 27.9244 8.38276C27.8741 8.50415 27.8004 8.61445 27.7075 8.70736L15.7075 20.7074C15.6146 20.8003 15.5043 20.874 15.3829 20.9243C15.2615 20.9745 15.1314 21.0004 15 21.0004C14.8686 21.0004 14.7385 20.9745 14.6171 20.9243C14.4957 20.874 14.3854 20.8003 14.2925 20.7074C14.1996 20.6145 14.1259 20.5042 14.0756 20.3828C14.0253 20.2614 13.9994 20.1313 13.9994 19.9999C13.9994 19.8685 14.0253 19.7384 14.0756 19.617C14.1259 19.4956 14.1996 19.3853 14.2925 19.2924ZM16 10.9999C16.8686 10.9988 17.7316 11.1394 18.555 11.4161C18.68 11.4604 18.8126 11.4794 18.945 11.472C19.0774 11.4646 19.2071 11.4309 19.3264 11.373C19.4456 11.315 19.5522 11.2338 19.6398 11.1343C19.7275 11.0347 19.7944 10.9187 19.8368 10.793C19.8791 10.6673 19.8961 10.5345 19.8866 10.4022C19.8771 10.2699 19.8414 10.1408 19.7816 10.0224C19.7217 9.90405 19.639 9.79877 19.538 9.7127C19.4371 9.62664 19.3201 9.56151 19.1937 9.52111C17.6002 8.98387 15.8968 8.8572 14.2413 9.15283C12.5857 9.44845 11.0315 10.1568 9.72233 11.2124C8.41316 12.268 7.39135 13.6367 6.75142 15.1919C6.11149 16.7471 5.87411 18.4386 6.06125 20.1099C6.0883 20.3543 6.20447 20.5802 6.38756 20.7444C6.57065 20.9086 6.80782 20.9995 7.05375 20.9999C7.09 20.9999 7.1275 20.9999 7.165 20.9936C7.42854 20.9644 7.66968 20.8317 7.83541 20.6247C8.00113 20.4177 8.07787 20.1534 8.04875 19.8899C8.01621 19.5943 7.99993 19.2972 8 18.9999C8.00231 16.8788 8.84591 14.8454 10.3457 13.3456C11.8455 11.8458 13.879 11.0022 16 10.9999ZM28.4675 12.6249C28.4076 12.508 28.3252 12.4041 28.2252 12.319C28.1251 12.234 28.0092 12.1694 27.8842 12.1292C27.7592 12.0889 27.6275 12.0736 27.4966 12.0843C27.3657 12.0949 27.2381 12.1312 27.1212 12.1911C27.0044 12.251 26.9004 12.3334 26.8154 12.4335C26.7303 12.5335 26.6658 12.6494 26.6256 12.7744C26.5853 12.8994 26.57 13.0311 26.5806 13.162C26.5913 13.293 26.6276 13.4205 26.6875 13.5374C27.4273 14.9902 27.8642 16.5782 27.9717 18.2051C28.0791 19.8319 27.8548 21.4636 27.3125 23.0011L4.675 22.9924C4.04341 21.1819 3.85373 19.2467 4.12179 17.348C4.38985 15.4494 5.10787 13.6423 6.21601 12.0775C7.32414 10.5127 8.79028 9.23537 10.4922 8.35212C12.1941 7.46886 14.0825 7.00523 16 6.99986H16.11C17.9724 7.01157 19.8059 7.46118 21.4625 8.31236C21.5797 8.37686 21.7086 8.41719 21.8417 8.43096C21.9748 8.44474 22.1092 8.43167 22.2372 8.39254C22.3651 8.35342 22.4839 8.28902 22.5864 8.20317C22.689 8.11731 22.7734 8.01175 22.8344 7.89272C22.8955 7.7737 22.932 7.64363 22.9419 7.51023C22.9518 7.37682 22.9348 7.24278 22.892 7.11605C22.8492 6.98933 22.7813 6.87248 22.6925 6.77244C22.6037 6.67239 22.4958 6.59118 22.375 6.53361C19.8812 5.25627 17.0615 4.75659 14.2806 5.09922C11.4997 5.44185 8.88566 6.61102 6.77649 8.4555C4.66733 10.3 3.16014 12.7349 2.44988 15.4453C1.73962 18.1556 1.85897 21.0168 2.7925 23.6586C2.9304 24.05 3.18614 24.3891 3.52457 24.6293C3.863 24.8695 4.26751 24.9989 4.6825 24.9999H27.3162C27.731 25.0001 28.1356 24.8714 28.474 24.6316C28.8124 24.3917 29.0679 24.0526 29.205 23.6611C29.8357 21.8672 30.0956 19.964 29.9688 18.0667C29.842 16.1694 29.3313 14.3176 28.4675 12.6236V12.6249Z" fill="black"/>
</svg>
