<svg width="25" height="25" viewBox="0 0 25 25" fill="none" xmlns="http://www.w3.org/2000/svg">
<path d="M21.2391 5.42695V9.92695C21.2391 10.1259 21.1601 10.3166 21.0195 10.4573C20.8788 10.5979 20.688 10.6769 20.4891 10.6769H15.9891C15.7902 10.6769 15.5995 10.5979 15.4588 10.4573C15.3182 10.3166 15.2391 10.1259 15.2391 9.92695C15.2391 9.72804 15.3182 9.53727 15.4588 9.39662C15.5995 9.25597 15.7902 9.17695 15.9891 9.17695H18.6788L17.3073 7.80539C15.9134 6.40514 14.0208 5.61515 12.0451 5.60882H12.0029C10.0437 5.60423 8.1614 6.37108 6.7632 7.74351C6.61997 7.87722 6.4301 7.94956 6.23421 7.94507C6.03832 7.94058 5.85197 7.8596 5.71502 7.71947C5.57807 7.57933 5.5014 7.39117 5.50141 7.19523C5.50142 6.99929 5.57811 6.81113 5.71507 6.67101C7.40963 5.01482 9.68896 4.09371 12.0584 4.10758C14.4279 4.12144 16.6963 5.06916 18.3713 6.74507L19.7391 8.11664V5.42695C19.7391 5.22804 19.8182 5.03727 19.9588 4.89662C20.0995 4.75597 20.2902 4.67695 20.4891 4.67695C20.688 4.67695 20.8788 4.75597 21.0195 4.89662C21.1601 5.03727 21.2391 5.22804 21.2391 5.42695ZM17.7151 18.1104C16.303 19.4897 14.4042 20.2567 12.4303 20.2451C10.4565 20.2335 8.56676 19.4443 7.17101 18.0485L5.79945 16.6769H8.48914C8.68805 16.6769 8.87881 16.5979 9.01947 16.4573C9.16012 16.3166 9.23914 16.1259 9.23914 15.9269C9.23914 15.728 9.16012 15.5373 9.01947 15.3966C8.87881 15.256 8.68805 15.1769 8.48914 15.1769H3.98914C3.79022 15.1769 3.59946 15.256 3.45881 15.3966C3.31815 15.5373 3.23914 15.728 3.23914 15.9269V20.4269C3.23914 20.6259 3.31815 20.8166 3.45881 20.9573C3.59946 21.0979 3.79022 21.1769 3.98914 21.1769C4.18805 21.1769 4.37881 21.0979 4.51947 20.9573C4.66012 20.8166 4.73914 20.6259 4.73914 20.4269V17.7373L6.1107 19.1088C7.7834 20.7899 10.0551 21.7382 12.4266 21.7451H12.4763C14.8276 21.7511 17.0867 20.8306 18.7641 19.1829C18.9011 19.0428 18.9778 18.8546 18.9778 18.6587C18.9778 18.4627 18.9011 18.2746 18.7642 18.1344C18.6272 17.9943 18.4409 17.9133 18.245 17.9088C18.0491 17.9043 17.8592 17.9767 17.716 18.1104H17.7151Z" fill="black"/>
</svg>
