<svg width="30" height="30" viewBox="0 0 30 30" fill="none" xmlns="http://www.w3.org/2000/svg">
<path d="M26.9133 25.5867L21.0457 19.7203C22.7464 17.6786 23.5944 15.0598 23.4134 12.4087C23.2324 9.75761 22.0363 7.27837 20.0739 5.48671C18.1115 3.69505 15.5339 2.72891 12.8774 2.78929C10.2208 2.84966 7.68979 3.9319 5.81083 5.81086C3.93187 7.68982 2.84963 10.2208 2.78926 12.8774C2.72888 15.534 3.69502 18.1116 5.48668 20.0739C7.27834 22.0363 9.75758 23.2324 12.4087 23.4134C15.0597 23.5944 17.6786 22.7464 19.7203 21.0457L25.5867 26.9133C25.6738 27.0004 25.7772 27.0695 25.891 27.1166C26.0048 27.1638 26.1268 27.188 26.25 27.188C26.3732 27.188 26.4952 27.1638 26.609 27.1166C26.7228 27.0695 26.8262 27.0004 26.9133 26.9133C27.0004 26.8262 27.0695 26.7228 27.1166 26.609C27.1638 26.4952 27.188 26.3732 27.188 26.25C27.188 26.1268 27.1638 26.0049 27.1166 25.8911C27.0695 25.7773 27.0004 25.6738 26.9133 25.5867ZM4.68749 13.125C4.68749 11.4562 5.18234 9.82494 6.10947 8.4374C7.03659 7.04986 8.35435 5.9684 9.8961 5.32979C11.4379 4.69118 13.1344 4.52408 14.7711 4.84965C16.4078 5.17521 17.9112 5.9788 19.0912 7.15881C20.2712 8.33882 21.0748 9.84223 21.4004 11.4789C21.7259 13.1157 21.5588 14.8122 20.9202 16.3539C20.2816 17.8957 19.2002 19.2134 17.8126 20.1405C16.4251 21.0677 14.7938 21.5625 13.125 21.5625C10.888 21.56 8.74332 20.6703 7.16152 19.0885C5.57972 17.5067 4.68997 15.362 4.68749 13.125Z" fill="#374553"/>
</svg>
