<svg width="24" height="24" viewBox="0 0 24 24" fill="none" xmlns="http://www.w3.org/2000/svg">
<path d="M16.4999 21.75C16.4999 21.9489 16.4209 22.1397 16.2802 22.2803C16.1396 22.421 15.9488 22.5 15.7499 22.5H8.24988C8.05097 22.5 7.8602 22.421 7.71955 22.2803C7.5789 22.1397 7.49988 21.9489 7.49988 21.75C7.49988 21.5511 7.5789 21.3603 7.71955 21.2197C7.8602 21.079 8.05097 21 8.24988 21H15.7499C15.9488 21 16.1396 21.079 16.2802 21.2197C16.4209 21.3603 16.4999 21.5511 16.4999 21.75ZM20.2499 9.75002C20.2531 11.0003 19.9707 12.2348 19.4241 13.3593C18.8775 14.4838 18.0813 15.4686 17.0961 16.2385C16.9119 16.3797 16.7624 16.5611 16.6591 16.7689C16.5558 16.9767 16.5013 17.2054 16.4999 17.4375V18C16.4999 18.3978 16.3418 18.7794 16.0605 19.0607C15.7792 19.342 15.3977 19.5 14.9999 19.5H8.99988C8.60205 19.5 8.22052 19.342 7.93922 19.0607C7.65791 18.7794 7.49988 18.3978 7.49988 18V17.4375C7.49972 17.2082 7.447 16.982 7.34575 16.7762C7.24449 16.5705 7.09742 16.3907 6.91582 16.2506C5.93325 15.4854 5.13762 14.5067 4.58913 13.3886C4.04063 12.2705 3.75364 11.0423 3.74988 9.79689C3.7255 5.32783 7.33675 1.60783 11.8011 1.50001C12.9011 1.47351 13.9953 1.66731 15.0193 2.07003C16.0433 2.47275 16.9764 3.07624 17.7637 3.84497C18.5509 4.61371 19.1765 5.53217 19.6034 6.54628C20.0304 7.5604 20.2502 8.64968 20.2499 9.75002ZM18.7499 9.75002C18.7501 8.8497 18.5703 7.95842 18.2209 7.12866C17.8715 6.29889 17.3597 5.54741 16.7155 4.91843C16.0714 4.28946 15.3079 3.7957 14.47 3.46624C13.6321 3.13678 12.7368 2.97826 11.8368 3.00001C8.1805 3.08626 5.23019 6.13033 5.24988 9.78658C5.25323 10.8053 5.48827 11.8098 5.93721 12.7243C6.38614 13.6387 7.03721 14.439 7.84113 15.0647C8.20248 15.3456 8.49477 15.7055 8.69561 16.1168C8.89646 16.528 9.00054 16.9798 8.99988 17.4375V18H11.2499V13.8103L8.46925 11.0306C8.32852 10.8899 8.24946 10.699 8.24946 10.5C8.24946 10.301 8.32852 10.1101 8.46925 9.96939C8.60998 9.82866 8.80086 9.7496 8.99988 9.7496C9.1989 9.7496 9.38977 9.82866 9.5305 9.96939L11.9999 12.4397L14.4693 9.96939C14.5389 9.89971 14.6217 9.84443 14.7127 9.80672C14.8038 9.76901 14.9013 9.7496 14.9999 9.7496C15.0984 9.7496 15.196 9.76901 15.2871 9.80672C15.3781 9.84443 15.4608 9.89971 15.5305 9.96939C15.6002 10.0391 15.6555 10.1218 15.6932 10.2128C15.7309 10.3039 15.7503 10.4015 15.7503 10.5C15.7503 10.5986 15.7309 10.6961 15.6932 10.7872C15.6555 10.8782 15.6002 10.961 15.5305 11.0306L12.7499 13.8103V18H14.9999V17.4375C15.0007 16.9785 15.1065 16.5257 15.3091 16.1138C15.5117 15.7019 15.8058 15.3418 16.1689 15.061C16.9753 14.4308 17.627 13.6247 18.0743 12.7043C18.5216 11.7839 18.7527 10.7734 18.7499 9.75002Z" fill="white"/>
</svg>
