<svg width="33" height="33" viewBox="0 0 33 33" fill="none" xmlns="http://www.w3.org/2000/svg">
<path d="M16.365 3.10596C13.7938 3.10596 11.2804 3.86839 9.14258 5.29685C7.00474 6.72531 5.3385 8.75563 4.35456 11.1311C3.37062 13.5065 3.11318 16.1204 3.61479 18.6421C4.1164 21.1639 5.35453 23.4803 7.17261 25.2983C8.99069 27.1164 11.3071 28.3546 13.8288 28.8562C16.3506 29.3578 18.9644 29.1003 21.3399 28.1164C23.7153 27.1325 25.7456 25.4662 27.1741 23.3284C28.6026 21.1905 29.365 18.6771 29.365 16.106C29.3614 12.6593 27.9905 9.35477 25.5534 6.91759C23.1162 4.4804 19.8117 3.1096 16.365 3.10596ZM15.865 9.10596C16.1617 9.10596 16.4517 9.19393 16.6984 9.35875C16.945 9.52357 17.1373 9.75784 17.2508 10.0319C17.3643 10.306 17.3941 10.6076 17.3362 10.8986C17.2783 11.1896 17.1354 11.4568 16.9257 11.6666C16.7159 11.8764 16.4486 12.0193 16.1576 12.0771C15.8667 12.135 15.5651 12.1053 15.291 11.9918C15.0169 11.8782 14.7826 11.686 14.6178 11.4393C14.453 11.1926 14.365 10.9026 14.365 10.606C14.365 10.2081 14.523 9.8266 14.8043 9.5453C15.0856 9.26399 15.4672 9.10596 15.865 9.10596ZM17.365 23.106C16.8346 23.106 16.3259 22.8952 15.9508 22.5202C15.5757 22.1451 15.365 21.6364 15.365 21.106V16.106C15.0998 16.106 14.8454 16.0006 14.6579 15.8131C14.4704 15.6255 14.365 15.3712 14.365 15.106C14.365 14.8407 14.4704 14.5864 14.6579 14.3989C14.8454 14.2113 15.0998 14.106 15.365 14.106C15.8954 14.106 16.4041 14.3167 16.7792 14.6917C17.1543 15.0668 17.365 15.5755 17.365 16.106V21.106C17.6302 21.106 17.8846 21.2113 18.0721 21.3988C18.2596 21.5864 18.365 21.8407 18.365 22.106C18.365 22.3712 18.2596 22.6255 18.0721 22.8131C17.8846 23.0006 17.6302 23.106 17.365 23.106Z" fill="black"/>
</svg>
