<svg width="30" height="30" viewBox="0 0 30 30" fill="none" xmlns="http://www.w3.org/2000/svg">
<path d="M25.3125 5.625V10.3125C25.3125 10.5611 25.2137 10.7996 25.0379 10.9754C24.8621 11.1512 24.6236 11.25 24.375 11.25C24.1264 11.25 23.8879 11.1512 23.7121 10.9754C23.5363 10.7996 23.4375 10.5611 23.4375 10.3125V6.5625H19.6875C19.4389 6.5625 19.2004 6.46373 19.0246 6.28791C18.8488 6.1121 18.75 5.87364 18.75 5.625C18.75 5.37636 18.8488 5.1379 19.0246 4.96209C19.2004 4.78627 19.4389 4.6875 19.6875 4.6875H24.375C24.6236 4.6875 24.8621 4.78627 25.0379 4.96209C25.2137 5.1379 25.3125 5.37636 25.3125 5.625ZM10.3125 23.4375H6.5625V19.6875C6.5625 19.4389 6.46373 19.2004 6.28791 19.0246C6.1121 18.8488 5.87364 18.75 5.625 18.75C5.37636 18.75 5.1379 18.8488 4.96209 19.0246C4.78627 19.2004 4.6875 19.4389 4.6875 19.6875V24.375C4.6875 24.6236 4.78627 24.8621 4.96209 25.0379C5.1379 25.2137 5.37636 25.3125 5.625 25.3125H10.3125C10.5611 25.3125 10.7996 25.2137 10.9754 25.0379C11.1512 24.8621 11.25 24.6236 11.25 24.375C11.25 24.1264 11.1512 23.8879 10.9754 23.7121C10.7996 23.5363 10.5611 23.4375 10.3125 23.4375ZM24.375 18.75C24.1264 18.75 23.8879 18.8488 23.7121 19.0246C23.5363 19.2004 23.4375 19.4389 23.4375 19.6875V23.4375H19.6875C19.4389 23.4375 19.2004 23.5363 19.0246 23.7121C18.8488 23.8879 18.75 24.1264 18.75 24.375C18.75 24.6236 18.8488 24.8621 19.0246 25.0379C19.2004 25.2137 19.4389 25.3125 19.6875 25.3125H24.375C24.6236 25.3125 24.8621 25.2137 25.0379 25.0379C25.2137 24.8621 25.3125 24.6236 25.3125 24.375V19.6875C25.3125 19.4389 25.2137 19.2004 25.0379 19.0246C24.8621 18.8488 24.6236 18.75 24.375 18.75ZM10.3125 4.6875H5.625C5.37636 4.6875 5.1379 4.78627 4.96209 4.96209C4.78627 5.1379 4.6875 5.37636 4.6875 5.625V10.3125C4.6875 10.5611 4.78627 10.7996 4.96209 10.9754C5.1379 11.1512 5.37636 11.25 5.625 11.25C5.87364 11.25 6.1121 11.1512 6.28791 10.9754C6.46373 10.7996 6.5625 10.5611 6.5625 10.3125V6.5625H10.3125C10.5611 6.5625 10.7996 6.46373 10.9754 6.28791C11.1512 6.1121 11.25 5.87364 11.25 5.625C11.25 5.37636 11.1512 5.1379 10.9754 4.96209C10.7996 4.78627 10.5611 4.6875 10.3125 4.6875Z" fill="#374553"/>
</svg>
