<svg width="33" height="32" viewBox="0 0 33 32" fill="none" xmlns="http://www.w3.org/2000/svg">
<path d="M29.6859 22.2313C29.4216 22.5695 29.0556 22.8137 28.6419 22.9278C28.2282 23.0419 27.7887 23.0199 27.3884 22.8651L24.2934 20.4901C24.2693 20.4724 24.2471 20.4523 24.2272 20.4301L13.7984 8.95258C13.7358 8.88417 13.6935 8.79969 13.6761 8.7086C13.6588 8.6175 13.6671 8.52338 13.7002 8.43675C13.7333 8.35011 13.7898 8.27438 13.8634 8.21802C13.937 8.16166 14.0249 8.12688 14.1172 8.11758C19.4922 7.54008 25.0847 9.25758 29.0997 13.2726C31.5984 15.7713 31.8397 19.4551 29.6859 22.2313ZM6.89217 4.32758C6.80435 4.22859 6.69776 4.14801 6.57857 4.09052C6.45938 4.03303 6.32997 3.99976 6.19783 3.99265C6.06569 3.98555 5.93345 4.00473 5.80878 4.04911C5.68411 4.09348 5.56949 4.16216 5.47156 4.25116C5.37363 4.34016 5.29433 4.44771 5.23827 4.56758C5.18221 4.68745 5.1505 4.81725 5.14498 4.94947C5.13945 5.08168 5.16023 5.21368 5.20609 5.33781C5.25196 5.46194 5.322 5.57573 5.41217 5.67258L8.86467 9.47133C6.7492 10.3605 4.82621 11.6514 3.20217 13.2726C0.702169 15.7726 0.462169 19.4551 2.61592 22.2313C2.88019 22.5695 3.24623 22.8137 3.65996 22.9278C4.07369 23.0419 4.51315 23.0199 4.91342 22.8651L11.0384 20.6938L11.0747 20.6801C11.3837 20.5566 11.6569 20.3579 11.8697 20.1021C12.0826 19.8463 12.2282 19.5414 12.2934 19.2151L13.0309 15.5263C13.3817 15.4053 13.7394 15.3055 14.1022 15.2276L25.4147 27.6726C25.5025 27.7716 25.6091 27.8522 25.7283 27.9096C25.8475 27.9671 25.9769 28.0004 26.109 28.0075C26.2412 28.0146 26.3734 27.9954 26.4981 27.9511C26.6227 27.9067 26.7373 27.838 26.8353 27.749C26.9332 27.66 27.0125 27.5525 27.0686 27.4326C27.1246 27.3127 27.1563 27.1829 27.1619 27.0507C27.1674 26.9185 27.1466 26.7865 27.1007 26.6624C27.0549 26.5382 26.9848 26.4244 26.8947 26.3276L6.89217 4.32758Z" fill="#7E92A9"/>
</svg>
