<svg width="32" height="32" viewBox="0 0 32 32" fill="none" xmlns="http://www.w3.org/2000/svg">
<path d="M30.4999 16.0001V24.0001C30.4999 24.3979 30.3419 24.7795 30.0606 25.0608C29.7793 25.3421 29.3978 25.5001 28.9999 25.5001H20.9999C20.6021 25.5001 20.2206 25.3421 19.9393 25.0608C19.658 24.7795 19.4999 24.3979 19.4999 24.0001C19.4999 23.6023 19.658 23.2207 19.9393 22.9394C20.2206 22.6581 20.6021 22.5001 20.9999 22.5001H25.3749L16.9999 14.1251L13.0612 18.0651C12.9218 18.2049 12.7563 18.3159 12.5739 18.3916C12.3916 18.4673 12.1961 18.5063 11.9987 18.5063C11.8013 18.5063 11.6058 18.4673 11.4235 18.3916C11.2411 18.3159 11.0756 18.2049 10.9362 18.0651L1.9362 9.0651C1.6544 8.78331 1.49609 8.40112 1.49609 8.0026C1.49609 7.80528 1.53496 7.60989 1.61047 7.42758C1.68599 7.24528 1.79667 7.07963 1.9362 6.9401C2.07573 6.80057 2.24137 6.68989 2.42367 6.61438C2.60598 6.53887 2.80137 6.5 2.9987 6.5C3.39721 6.5 3.7794 6.65831 4.0612 6.9401L11.9999 14.8751L15.9387 10.9351C16.0781 10.7953 16.2436 10.6843 16.426 10.6086C16.6083 10.5329 16.8038 10.4939 17.0012 10.4939C17.1986 10.4939 17.3941 10.5329 17.5764 10.6086C17.7588 10.6843 17.9243 10.7953 18.0637 10.9351L27.4999 20.3751V16.0001C27.4999 15.6023 27.658 15.2207 27.9393 14.9394C28.2206 14.6581 28.6021 14.5001 28.9999 14.5001C29.3978 14.5001 29.7793 14.6581 30.0606 14.9394C30.3419 15.2207 30.4999 15.6023 30.4999 16.0001Z" fill="#3F67C5"/>
</svg>
