<svg width="33" height="33" viewBox="0 0 33 33" fill="none" xmlns="http://www.w3.org/2000/svg">
<path d="M16.5756 3.06396C13.9055 3.06396 11.2954 3.85573 9.07537 5.33913C6.85531 6.82252 5.12498 8.93094 4.10319 11.3977C3.08141 13.8645 2.81407 16.5789 3.33497 19.1977C3.85587 21.8164 5.14162 24.2219 7.02963 26.1099C8.91764 27.9979 11.3231 29.2837 13.9418 29.8046C16.5606 30.3255 19.275 30.0581 21.7418 29.0363C24.2086 28.0146 26.317 26.2842 27.8004 24.0642C29.2838 21.8441 30.0756 19.234 30.0756 16.564C30.0716 12.9848 28.648 9.55329 26.1171 7.02241C23.5862 4.49153 20.1548 3.06794 16.5756 3.06396ZM16.5756 27.064C14.4989 27.064 12.4688 26.4482 10.7421 25.2944C9.01536 24.1406 7.66955 22.5008 6.87483 20.5821C6.08011 18.6635 5.87218 16.5523 6.27732 14.5155C6.68247 12.4787 7.68249 10.6078 9.15095 9.13934C10.6194 7.67089 12.4903 6.67086 14.5271 6.26572C16.5639 5.86057 18.6751 6.06851 20.5937 6.86323C22.5124 7.65795 24.1522 9.00376 25.306 10.7305C26.4598 12.4572 27.0756 14.4873 27.0756 16.564C27.0726 19.3478 25.9654 22.0168 23.9969 23.9853C22.0284 25.9538 19.3594 27.061 16.5756 27.064Z" fill="black"/>
</svg>
