<svg width="33" height="33" viewBox="0 0 33 33" fill="none" xmlns="http://www.w3.org/2000/svg">
<path d="M27.5063 9.45729L23.0925 5.04354C22.9075 4.85701 22.6872 4.70913 22.4445 4.60848C22.2018 4.50784 21.9415 4.45645 21.6788 4.45729H6.09253C5.5621 4.45729 5.05339 4.668 4.67832 5.04307C4.30324 5.41814 4.09253 5.92685 4.09253 6.45729V26.4573C4.09253 26.9877 4.30324 27.4964 4.67832 27.8715C5.05339 28.2466 5.5621 28.4573 6.09253 28.4573H26.0925C26.623 28.4573 27.1317 28.2466 27.5067 27.8715C27.8818 27.4964 28.0925 26.9877 28.0925 26.4573V10.871C28.0934 10.6083 28.042 10.348 27.9413 10.1053C27.8407 9.86261 27.6928 9.64233 27.5063 9.45729ZM21.0925 26.4573H11.0925V19.4573H21.0925V26.4573ZM26.0925 26.4573H23.0925V19.4573C23.0925 18.9269 22.8818 18.4181 22.5067 18.0431C22.1317 17.668 21.623 17.4573 21.0925 17.4573H11.0925C10.5621 17.4573 10.0534 17.668 9.67832 18.0431C9.30324 18.4181 9.09253 18.9269 9.09253 19.4573V26.4573H6.09253V6.45729H21.6788L26.0925 10.871V26.4573ZM20.0925 9.45729C20.0925 9.7225 19.9872 9.97686 19.7996 10.1644C19.6121 10.3519 19.3577 10.4573 19.0925 10.4573H12.0925C11.8273 10.4573 11.573 10.3519 11.3854 10.1644C11.1979 9.97686 11.0925 9.7225 11.0925 9.45729C11.0925 9.19207 11.1979 8.93772 11.3854 8.75018C11.573 8.56264 11.8273 8.45729 12.0925 8.45729H19.0925C19.3577 8.45729 19.6121 8.56264 19.7996 8.75018C19.9872 8.93772 20.0925 9.19207 20.0925 9.45729Z" fill="black"/>
</svg>
