<svg width="50" height="50" viewBox="0 0 50 50" fill="none" xmlns="http://www.w3.org/2000/svg">
<g clip-path="url(#clip0_82_827)">
<path d="M25.0027 35.7209C30.9222 35.7209 35.7209 30.9222 35.7209 25.0027C35.7209 19.0831 30.9222 14.2844 25.0027 14.2844C19.0831 14.2844 14.2844 19.0831 14.2844 25.0027C14.2844 30.9222 19.0831 35.7209 25.0027 35.7209Z" fill="#F4AF3B"/>
<path fill-rule="evenodd" clip-rule="evenodd" d="M25.0027 15.3956C19.6968 15.3956 15.3956 19.6968 15.3956 25.0027C15.3956 30.3086 19.6968 34.6098 25.0027 34.6098C30.3086 34.6098 34.6098 30.3086 34.6098 25.0027C34.6098 19.6968 30.3086 15.3956 25.0027 15.3956ZM13.1733 25.0027C13.1733 18.4695 18.4695 13.1733 25.0027 13.1733C31.5359 13.1733 36.8321 18.4695 36.8321 25.0027C36.8321 31.5359 31.5359 36.8321 25.0027 36.8321C18.4695 36.8321 13.1733 31.5359 13.1733 25.0027Z" fill="#374553"/>
<path fill-rule="evenodd" clip-rule="evenodd" d="M25.0026 5.5083C25.6162 5.5083 26.1137 6.00576 26.1137 6.61941V9.41733C26.1137 10.031 25.6162 10.5284 25.0026 10.5284C24.3889 10.5284 23.8915 10.031 23.8915 9.41733V6.61941C23.8915 6.00576 24.3889 5.5083 25.0026 5.5083Z" fill="#374553"/>
<path fill-rule="evenodd" clip-rule="evenodd" d="M11.2168 11.2168C11.6507 10.7829 12.3542 10.7829 12.7881 11.2168L14.7669 13.1955C15.2008 13.6295 15.2008 14.333 14.7669 14.7669C14.333 15.2008 13.6295 15.2008 13.1955 14.7669L11.2168 12.7881C10.7829 12.3542 10.7829 11.6507 11.2168 11.2168Z" fill="#374553"/>
<path fill-rule="evenodd" clip-rule="evenodd" d="M5.5083 25.0026C5.5083 24.3889 6.00576 23.8915 6.61941 23.8915H9.41733C10.031 23.8915 10.5284 24.3889 10.5284 25.0026C10.5284 25.6162 10.031 26.1137 9.41733 26.1137H6.61941C6.00576 26.1137 5.5083 25.6162 5.5083 25.0026Z" fill="#374553"/>
<path fill-rule="evenodd" clip-rule="evenodd" d="M14.7669 35.2332C15.2008 35.6671 15.2008 36.3706 14.7669 36.8045L12.7881 38.7833C12.3542 39.2172 11.6507 39.2172 11.2168 38.7833C10.7829 38.3493 10.7829 37.6458 11.2168 37.2119L13.1955 35.2332C13.6295 34.7992 14.333 34.7992 14.7669 35.2332Z" fill="#374553"/>
<path fill-rule="evenodd" clip-rule="evenodd" d="M25.0026 39.4716C25.6162 39.4716 26.1137 39.969 26.1137 40.5827V43.3806C26.1137 43.9942 25.6162 44.4917 25.0026 44.4917C24.3889 44.4917 23.8915 43.9942 23.8915 43.3806V40.5827C23.8915 39.969 24.3889 39.4716 25.0026 39.4716Z" fill="#374553"/>
<path fill-rule="evenodd" clip-rule="evenodd" d="M35.2332 35.2332C35.6671 34.7992 36.3706 34.7992 36.8045 35.2332L38.7833 37.2119C39.2172 37.6458 39.2172 38.3493 38.7833 38.7833C38.3493 39.2172 37.6458 39.2172 37.2119 38.7833L35.2332 36.8045C34.7992 36.3706 34.7992 35.6671 35.2332 35.2332Z" fill="#374553"/>
<path fill-rule="evenodd" clip-rule="evenodd" d="M39.4716 25.0026C39.4716 24.3889 39.969 23.8915 40.5827 23.8915H43.3806C43.9942 23.8915 44.4917 24.3889 44.4917 25.0026C44.4917 25.6162 43.9942 26.1137 43.3806 26.1137H40.5827C39.969 26.1137 39.4716 25.6162 39.4716 25.0026Z" fill="#374553"/>
<path fill-rule="evenodd" clip-rule="evenodd" d="M38.7833 11.2168C39.2172 11.6507 39.2172 12.3542 38.7833 12.7881L36.8045 14.7669C36.3706 15.2008 35.6671 15.2008 35.2332 14.7669C34.7992 14.333 34.7992 13.6295 35.2332 13.1955L37.2119 11.2168C37.6458 10.7829 38.3493 10.7829 38.7833 11.2168Z" fill="#374553"/>
</g>
<defs>
<clipPath id="clip0_82_827">
<rect width="38.8889" height="38.8889" fill="white" transform="translate(5.55554 5.55554)"/>
</clipPath>
</defs>
</svg>
