<svg width="50" height="50" viewBox="0 0 50 50" fill="none" xmlns="http://www.w3.org/2000/svg">
<g clip-path="url(#clip0_82_831)">
<path d="M41.1469 15.5717L34.6731 15.5341L38.6359 2.52734L23.5967 20.6421L29.8984 20.8787L24.3172 33.8371L41.1469 15.5717Z" fill="#F4AF3B"/>
<path fill-rule="evenodd" clip-rule="evenodd" d="M39.1631 1.54921C39.6289 1.80025 39.853 2.34496 39.6988 2.85114L36.1706 14.4316L41.1534 14.4606C41.5934 14.4631 41.9904 14.7251 42.1659 15.1285C42.3413 15.532 42.2622 16.001 41.9641 16.3246L25.1344 34.5899C24.7674 34.9882 24.1667 35.0639 23.7124 34.7691C23.2581 34.4743 23.0825 33.8949 23.2967 33.3975L28.2366 21.9282L23.555 21.7524C23.1321 21.7366 22.7549 21.4818 22.5823 21.0954C22.4096 20.7089 22.4715 20.258 22.7418 19.9324L37.781 1.81757C38.119 1.41044 38.6973 1.29816 39.1631 1.54921ZM25.8924 19.6164L29.9401 19.7684C30.3063 19.7821 30.6422 19.9755 30.8379 20.2854C31.0336 20.5952 31.0639 20.9816 30.9189 21.3182L27.915 28.2926L38.6258 16.6682L34.6667 16.6451C34.3158 16.6431 33.9864 16.4754 33.7784 16.1928C33.5703 15.9102 33.508 15.5459 33.6103 15.2102L35.9638 7.48533L25.8924 19.6164Z" fill="#374553"/>
<path fill-rule="evenodd" clip-rule="evenodd" d="M19.941 25.7978C20.3749 26.2318 20.3749 26.9353 19.941 27.3692L11.096 36.2142C10.6621 36.6481 9.95857 36.6481 9.52466 36.2142C9.09074 35.7803 9.09074 35.0768 9.52466 34.6429L18.3697 25.7978C18.8036 25.3639 19.5071 25.3639 19.941 25.7978Z" fill="#374553"/>
<path fill-rule="evenodd" clip-rule="evenodd" d="M13.0317 21.8351C13.4656 22.269 13.4656 22.9725 13.0317 23.4064L9.63885 26.7993C9.20493 27.2332 8.50142 27.2332 8.0675 26.7993C7.63359 26.3653 7.63359 25.6618 8.0675 25.2279L11.4603 21.8351C11.8942 21.4012 12.5978 21.4012 13.0317 21.8351Z" fill="#374553"/>
<path fill-rule="evenodd" clip-rule="evenodd" d="M18.8391 37.9875C19.2728 38.4216 19.2726 39.1251 18.8386 39.5589L10.1334 48.2587C9.69931 48.6925 8.99579 48.6923 8.56201 48.2582C8.12823 47.8242 8.12845 47.1207 8.5625 46.6869L17.2677 37.9871C17.7018 37.5533 18.4053 37.5535 18.8391 37.9875Z" fill="#374553"/>
<path fill-rule="evenodd" clip-rule="evenodd" d="M40.712 39.5198C41.1459 39.9537 41.1459 40.6572 40.712 41.0911L33.6575 48.1456C33.2236 48.5795 32.5201 48.5795 32.0862 48.1456C31.6523 47.7117 31.6523 47.0082 32.0862 46.5743L39.1407 39.5198C39.5746 39.0859 40.2781 39.0859 40.712 39.5198Z" fill="#374553"/>
<path fill-rule="evenodd" clip-rule="evenodd" d="M29.9203 37.987C30.3544 38.4208 30.3546 39.1243 29.9208 39.5584L21.6995 47.7851C21.2658 48.2191 20.5622 48.2193 20.1282 47.7856C19.6941 47.3518 19.6939 46.6483 20.1277 46.2142L28.349 37.9876C28.7827 37.5535 29.4862 37.5533 29.9203 37.987Z" fill="#374553"/>
<path fill-rule="evenodd" clip-rule="evenodd" d="M41.1529 26.755C41.5869 27.1889 41.5869 27.8924 41.1529 28.3264L34.8889 34.5904C34.4549 35.0244 33.7514 35.0244 33.3175 34.5904C32.8836 34.1565 32.8836 33.453 33.3175 33.0191L39.5816 26.755C40.0155 26.3211 40.719 26.3211 41.1529 26.755Z" fill="#374553"/>
</g>
<defs>
<clipPath id="clip0_82_831">
<rect width="34.4444" height="47.0963" fill="white" transform="translate(7.77783 1.4519)"/>
</clipPath>
</defs>
</svg>
