<svg width="40" height="40" viewBox="0 0 40 40" fill="none" xmlns="http://www.w3.org/2000/svg">
<path d="M4.92881 21.3266L16.1788 32.5766C16.531 32.9288 17.0088 33.1267 17.5069 33.1267C18.0051 33.1267 18.4828 32.9288 18.8351 32.5766C19.1873 32.2244 19.3852 31.7466 19.3852 31.2485C19.3852 30.7503 19.1873 30.2726 18.8351 29.9203L10.7866 21.875H33.7554C34.2527 21.875 34.7296 21.6775 35.0812 21.3259C35.4328 20.9742 35.6304 20.4973 35.6304 20C35.6304 19.5027 35.4328 19.0258 35.0812 18.6742C34.7296 18.3226 34.2527 18.125 33.7554 18.125H10.7866L18.8319 10.075C19.1842 9.72279 19.3821 9.24505 19.3821 8.7469C19.3821 8.24876 19.1842 7.77102 18.8319 7.41878C18.4797 7.06654 18.002 6.86865 17.5038 6.86865C17.0057 6.86865 16.5279 7.06654 16.1757 7.41878L4.92568 18.6688C4.75085 18.8432 4.6122 19.0505 4.5177 19.2786C4.42319 19.5068 4.37469 19.7514 4.37498 19.9983C4.37527 20.2453 4.42435 20.4898 4.51939 20.7177C4.61443 20.9457 4.75357 21.1526 4.92881 21.3266Z" fill="#5A6F86"/>
</svg>
