<svg width="33" height="32" viewBox="0 0 33 32" fill="none" xmlns="http://www.w3.org/2000/svg">
<path d="M16.9636 3C14.3925 3 11.8791 3.76244 9.74122 5.1909C7.60338 6.61935 5.93713 8.64968 4.95319 11.0251C3.96926 13.4006 3.71181 16.0144 4.21342 18.5362C4.71503 21.0579 5.95316 23.3743 7.77124 25.1924C9.58932 27.0105 11.9057 28.2486 14.4275 28.7502C16.9492 29.2518 19.5631 28.9944 21.9385 28.0104C24.314 27.0265 26.3443 25.3603 27.7727 23.2224C29.2012 21.0846 29.9636 18.5712 29.9636 16C29.96 12.5533 28.5892 9.24882 26.152 6.81163C23.7148 4.37445 20.4103 3.00364 16.9636 3ZM22.6711 13.7075L15.6711 20.7075C15.5783 20.8005 15.468 20.8742 15.3466 20.9246C15.2252 20.9749 15.095 21.0008 14.9636 21.0008C14.8322 21.0008 14.7021 20.9749 14.5807 20.9246C14.4593 20.8742 14.349 20.8005 14.2561 20.7075L11.2561 17.7075C11.0685 17.5199 10.9631 17.2654 10.9631 17C10.9631 16.7346 11.0685 16.4801 11.2561 16.2925C11.4438 16.1049 11.6983 15.9994 11.9636 15.9994C12.229 15.9994 12.4835 16.1049 12.6711 16.2925L14.9636 18.5863L21.2561 12.2925C21.349 12.1996 21.4593 12.1259 21.5807 12.0756C21.7021 12.0253 21.8322 11.9994 21.9636 11.9994C22.095 11.9994 22.2251 12.0253 22.3465 12.0756C22.4679 12.1259 22.5782 12.1996 22.6711 12.2925C22.764 12.3854 22.8377 12.4957 22.888 12.6171C22.9383 12.7385 22.9642 12.8686 22.9642 13C22.9642 13.1314 22.9383 13.2615 22.888 13.3829C22.8377 13.5043 22.764 13.6146 22.6711 13.7075Z" fill="#2BA196"/>
</svg>
