<svg width="30" height="30" viewBox="0 0 30 30" fill="none" xmlns="http://www.w3.org/2000/svg">
<path d="M25.9922 20.618C25.3418 19.4977 24.375 16.3277 24.375 12.1875C24.375 9.7011 23.3873 7.31653 21.6291 5.55837C19.871 3.80022 17.4864 2.8125 15 2.8125C12.5136 2.8125 10.129 3.80022 8.37089 5.55837C6.61274 7.31653 5.62502 9.7011 5.62502 12.1875C5.62502 16.3289 4.65705 19.4977 4.00666 20.618C3.84057 20.9028 3.75252 21.2264 3.75138 21.5561C3.75025 21.8858 3.83608 22.2099 4.00021 22.4959C4.16434 22.7818 4.40097 23.0195 4.68623 23.1848C4.9715 23.3501 5.29531 23.4373 5.62502 23.4375H10.4074C10.6237 24.4959 11.199 25.4471 12.0358 26.1302C12.8726 26.8133 13.9198 27.1864 15 27.1864C16.0803 27.1864 17.1274 26.8133 17.9642 26.1302C18.8011 25.4471 19.3763 24.4959 19.5926 23.4375H24.375C24.7046 23.4371 25.0283 23.3497 25.3134 23.1843C25.5985 23.0189 25.835 22.7813 25.9989 22.4954C26.1629 22.2095 26.2487 21.8854 26.2475 21.5558C26.2463 21.2262 26.1582 20.9027 25.9922 20.618ZM15 25.3125C14.4186 25.3123 13.8514 25.1319 13.3767 24.7961C12.902 24.4604 12.5431 23.9857 12.3492 23.4375H17.6508C17.457 23.9857 17.098 24.4604 16.6233 24.7961C16.1486 25.1319 15.5815 25.3123 15 25.3125ZM5.62502 21.5625C6.52736 20.0109 7.50002 16.4156 7.50002 12.1875C7.50002 10.1984 8.29019 8.29072 9.69671 6.8842C11.1032 5.47768 13.0109 4.6875 15 4.6875C16.9891 4.6875 18.8968 5.47768 20.3033 6.8842C21.7098 8.29072 22.5 10.1984 22.5 12.1875C22.5 16.4121 23.4703 20.0074 24.375 21.5625H5.62502Z" fill="#374553"/>
</svg>
