<svg width="33" height="33" viewBox="0 0 33 33" fill="none" xmlns="http://www.w3.org/2000/svg">
<path d="M27.6666 13.0479L17.6666 23.0479C17.5737 23.1409 17.4634 23.2146 17.342 23.265C17.2206 23.3153 17.0905 23.3412 16.9591 23.3412C16.8276 23.3412 16.6975 23.3153 16.5761 23.265C16.4547 23.2146 16.3444 23.1409 16.2516 23.0479L6.25155 13.0479C6.06391 12.8603 5.9585 12.6058 5.9585 12.3404C5.9585 12.075 6.06391 11.8205 6.25155 11.6329C6.43919 11.4453 6.69369 11.3398 6.95905 11.3398C7.22442 11.3398 7.47891 11.4453 7.66655 11.6329L16.9591 20.9267L26.2516 11.6329C26.3445 11.54 26.4548 11.4663 26.5762 11.416C26.6975 11.3657 26.8277 11.3398 26.9591 11.3398C27.0904 11.3398 27.2206 11.3657 27.3419 11.416C27.4633 11.4663 27.5736 11.54 27.6666 11.6329C27.7595 11.7258 27.8332 11.8361 27.8834 11.9575C27.9337 12.0789 27.9596 12.209 27.9596 12.3404C27.9596 12.4718 27.9337 12.6019 27.8834 12.7233C27.8332 12.8447 27.7595 12.955 27.6666 13.0479Z" fill="black"/>
</svg>
