<svg width="33" height="33" viewBox="0 0 33 33" fill="none" xmlns="http://www.w3.org/2000/svg">
<path d="M26.2104 4.61426H6.21045C5.68002 4.61426 5.17131 4.82497 4.79624 5.20004C4.42116 5.57512 4.21045 6.08382 4.21045 6.61426V26.6143C4.21045 27.1447 4.42116 27.6534 4.79624 28.0285C5.17131 28.4035 5.68002 28.6143 6.21045 28.6143H26.2104C26.7409 28.6143 27.2496 28.4035 27.6247 28.0285C27.9997 27.6534 28.2104 27.1447 28.2104 26.6143V6.61426C28.2104 6.08382 27.9997 5.57512 27.6247 5.20004C27.2496 4.82497 26.7409 4.61426 26.2104 4.61426ZM9.21045 23.6143H8.21045C7.94523 23.6143 7.69088 23.5089 7.50334 23.3214C7.31581 23.1338 7.21045 22.8795 7.21045 22.6143C7.21045 22.349 7.31581 22.0947 7.50334 21.9072C7.69088 21.7196 7.94523 21.6143 8.21045 21.6143H9.21045C9.47567 21.6143 9.73002 21.7196 9.91756 21.9072C10.1051 22.0947 10.2104 22.349 10.2104 22.6143C10.2104 22.8795 10.1051 23.1338 9.91756 23.3214C9.73002 23.5089 9.47567 23.6143 9.21045 23.6143ZM9.21045 17.6143H8.21045C7.94523 17.6143 7.69088 17.5089 7.50334 17.3214C7.31581 17.1338 7.21045 16.8795 7.21045 16.6143C7.21045 16.349 7.31581 16.0947 7.50334 15.9072C7.69088 15.7196 7.94523 15.6143 8.21045 15.6143H9.21045C9.47567 15.6143 9.73002 15.7196 9.91756 15.9072C10.1051 16.0947 10.2104 16.349 10.2104 16.6143C10.2104 16.8795 10.1051 17.1338 9.91756 17.3214C9.73002 17.5089 9.47567 17.6143 9.21045 17.6143ZM9.21045 11.6143H8.21045C7.94523 11.6143 7.69088 11.5089 7.50334 11.3214C7.31581 11.1338 7.21045 10.8795 7.21045 10.6143C7.21045 10.349 7.31581 10.0947 7.50334 9.90715C7.69088 9.71961 7.94523 9.61426 8.21045 9.61426H9.21045C9.47567 9.61426 9.73002 9.71961 9.91756 9.90715C10.1051 10.0947 10.2104 10.349 10.2104 10.6143C10.2104 10.8795 10.1051 11.1338 9.91756 11.3214C9.73002 11.5089 9.47567 11.6143 9.21045 11.6143ZM24.2104 23.6143H13.2104C12.9452 23.6143 12.6909 23.5089 12.5033 23.3214C12.3158 23.1338 12.2104 22.8795 12.2104 22.6143C12.2104 22.349 12.3158 22.0947 12.5033 21.9072C12.6909 21.7196 12.9452 21.6143 13.2104 21.6143H24.2104C24.4757 21.6143 24.73 21.7196 24.9176 21.9072C25.1051 22.0947 25.2104 22.349 25.2104 22.6143C25.2104 22.8795 25.1051 23.1338 24.9176 23.3214C24.73 23.5089 24.4757 23.6143 24.2104 23.6143ZM24.2104 17.6143H13.2104C12.9452 17.6143 12.6909 17.5089 12.5033 17.3214C12.3158 17.1338 12.2104 16.8795 12.2104 16.6143C12.2104 16.349 12.3158 16.0947 12.5033 15.9072C12.6909 15.7196 12.9452 15.6143 13.2104 15.6143H24.2104C24.4757 15.6143 24.73 15.7196 24.9176 15.9072C25.1051 16.0947 25.2104 16.349 25.2104 16.6143C25.2104 16.8795 25.1051 17.1338 24.9176 17.3214C24.73 17.5089 24.4757 17.6143 24.2104 17.6143ZM24.2104 11.6143H13.2104C12.9452 11.6143 12.6909 11.5089 12.5033 11.3214C12.3158 11.1338 12.2104 10.8795 12.2104 10.6143C12.2104 10.349 12.3158 10.0947 12.5033 9.90715C12.6909 9.71961 12.9452 9.61426 13.2104 9.61426H24.2104C24.4757 9.61426 24.73 9.71961 24.9176 9.90715C25.1051 10.0947 25.2104 10.349 25.2104 10.6143C25.2104 10.8795 25.1051 11.1338 24.9176 11.3214C24.73 11.5089 24.4757 11.6143 24.2104 11.6143Z" fill="#374553"/>
</svg>
