<svg width="19" height="19" viewBox="0 0 19 19" fill="none" xmlns="http://www.w3.org/2000/svg">
<path d="M15.5967 6.08435H7.72168V4.39685C7.72168 3.80011 7.95873 3.22782 8.38069 2.80586C8.80265 2.3839 9.37494 2.14685 9.97168 2.14685C11.0524 2.14685 12.0248 2.92029 12.2329 3.94615C12.2638 4.09111 12.3507 4.21802 12.4746 4.29928C12.5986 4.38055 12.7496 4.40962 12.8949 4.38016C13.0401 4.3507 13.1679 4.2651 13.2504 4.14196C13.3329 4.01882 13.3634 3.8681 13.3354 3.72255C13.0176 2.1574 11.6029 1.02185 9.97168 1.02185C9.07686 1.02278 8.21896 1.37866 7.58622 2.01139C6.95349 2.64413 6.59761 3.50203 6.59668 4.39685V6.08435H4.34668C4.04831 6.08435 3.76216 6.20288 3.55118 6.41386C3.34021 6.62483 3.22168 6.91098 3.22168 7.20935V15.0844C3.22168 15.3827 3.34021 15.6689 3.55118 15.8798C3.76216 16.0908 4.04831 16.2094 4.34668 16.2094H15.5967C15.895 16.2094 16.1812 16.0908 16.3922 15.8798C16.6032 15.6689 16.7217 15.3827 16.7217 15.0844V7.20935C16.7217 6.91098 16.6032 6.62483 16.3922 6.41386C16.1812 6.20288 15.895 6.08435 15.5967 6.08435ZM15.5967 15.0844H4.34668V7.20935H15.5967V15.0844ZM9.97168 8.33435C9.4989 8.33451 9.04196 8.5048 8.68439 8.81409C8.32681 9.12339 8.09248 9.55103 8.02422 10.0189C7.95596 10.4867 8.05833 10.9635 8.31263 11.362C8.56692 11.7606 8.95615 12.0543 9.40918 12.1896V13.3969C9.40918 13.546 9.46844 13.6891 9.57393 13.7946C9.67942 13.9001 9.8225 13.9594 9.97168 13.9594C10.1209 13.9594 10.2639 13.9001 10.3694 13.7946C10.4749 13.6891 10.5342 13.546 10.5342 13.3969V12.1896C10.9872 12.0543 11.3764 11.7606 11.6307 11.362C11.885 10.9635 11.9874 10.4867 11.9191 10.0189C11.8509 9.55103 11.6165 9.12339 11.259 8.81409C10.9014 8.5048 10.4445 8.33451 9.97168 8.33435ZM9.97168 11.1469C9.8048 11.1469 9.64167 11.0974 9.50292 11.0047C9.36416 10.9119 9.25602 10.7802 9.19216 10.626C9.12829 10.4718 9.11159 10.3022 9.14414 10.1385C9.1767 9.97482 9.25706 9.82448 9.37506 9.70648C9.49306 9.58848 9.6434 9.50812 9.80707 9.47556C9.97074 9.44301 10.1404 9.45972 10.2946 9.52358C10.4487 9.58744 10.5805 9.69558 10.6732 9.83434C10.7659 9.97309 10.8154 10.1362 10.8154 10.3031C10.8154 10.5269 10.7265 10.7415 10.5683 10.8997C10.4101 11.058 10.1955 11.1469 9.97168 11.1469Z" fill="#BFC9D4"/>
</svg>
