<svg width="32" height="32" viewBox="0 0 32 32" fill="none" xmlns="http://www.w3.org/2000/svg">
<path fill-rule="evenodd" clip-rule="evenodd" d="M11 2C9.34315 2 8 3.34314 8 5V13V25C8 26.6569 9.34315 28 11 28V29C11 29.5523 11.4477 30 12 30C12.5523 30 13 29.5523 13 29V28H20V29C20 29.5523 20.4477 30 21 30C21.5523 30 22 29.5523 22 29V28C23.6569 28 25 26.6569 25 25V13V5C25 3.34315 23.6569 2 22 2H11ZM21 26H22C22.5523 26 23 25.5523 23 25V14H10V25C10 25.5523 10.4477 26 11 26H12H21ZM23 12V5C23 4.44772 22.5523 4 22 4H11C10.4477 4 10 4.44772 10 5V12H23ZM13 6C13.5523 6 14 6.44772 14 7V9C14 9.55228 13.5523 10 13 10C12.4477 10 12 9.55228 12 9L12 7C12 6.44772 12.4477 6 13 6ZM14 17C14 16.4477 13.5523 16 13 16C12.4477 16 12 16.4477 12 17V21C12 21.5523 12.4477 22 13 22C13.5523 22 14 21.5523 14 21V17Z" fill="black"/>
</svg>
