<svg width="40" height="40" viewBox="0 0 40 40" fill="none" xmlns="http://www.w3.org/2000/svg">
<path d="M35.0766 21.3266L23.8266 32.5766C23.4743 32.9288 22.9966 33.1267 22.4984 33.1267C22.0003 33.1267 21.5226 32.9288 21.1703 32.5766C20.8181 32.2244 20.6202 31.7466 20.6202 31.2485C20.6202 30.7503 20.8181 30.2726 21.1703 29.9203L29.2188 21.875H6.25C5.75272 21.875 5.27581 21.6775 4.92417 21.3259C4.57254 20.9742 4.375 20.4973 4.375 20C4.375 19.5027 4.57254 19.0258 4.92417 18.6742C5.27581 18.3226 5.75272 18.125 6.25 18.125H29.2188L21.1734 10.075C20.8212 9.72279 20.6233 9.24505 20.6233 8.7469C20.6233 8.24876 20.8212 7.77102 21.1734 7.41878C21.5257 7.06654 22.0034 6.86865 22.5016 6.86865C22.9997 6.86865 23.4774 7.06654 23.8297 7.41878L35.0797 18.6688C35.2545 18.8432 35.3932 19.0505 35.4877 19.2786C35.5822 19.5068 35.6307 19.7514 35.6304 19.9983C35.6301 20.2453 35.581 20.4898 35.486 20.7177C35.3909 20.9457 35.2518 21.1526 35.0766 21.3266Z" fill="#5A6F86"/>
</svg>
