<svg width="50" height="50" viewBox="0 0 50 50" fill="none" xmlns="http://www.w3.org/2000/svg">
<g clip-path="url(#clip0_82_829)">
<path d="M32.3889 10.6472C32.3444 10.6472 32.3055 10.6528 32.2666 10.6528C30.0222 6.7028 25.7833 4.03613 20.9166 4.03613C13.7055 4.03613 7.86108 9.88058 7.86108 17.0917C7.86108 24.3028 13.7055 30.1472 20.9166 30.1472H31.95V30.125C32.0944 30.1306 32.2444 30.1472 32.3889 30.1472C37.7722 30.1472 42.1389 25.7806 42.1389 20.3972C42.1389 15.0139 37.7722 10.6472 32.3889 10.6472Z" fill="white"/>
<path fill-rule="evenodd" clip-rule="evenodd" d="M6.75 17.0917C6.75 9.26696 13.0919 2.92505 20.9167 2.92505C25.9682 2.92505 30.3942 5.57277 32.8998 9.54797C38.6597 9.81489 43.25 14.5715 43.25 20.3973C43.25 26.3943 38.3859 31.2584 32.3889 31.2584C32.3193 31.2584 32.2056 31.253 32.1061 31.2475C32.0551 31.2547 32.003 31.2584 31.95 31.2584H20.9167C13.0919 31.2584 6.75 24.9165 6.75 17.0917ZM31.7289 29.0362H20.9167C14.3192 29.0362 8.97222 23.6892 8.97222 17.0917C8.97222 10.4943 14.3192 5.14727 20.9167 5.14727C25.3665 5.14727 29.245 7.58412 31.3006 11.2017C31.4981 11.5493 31.867 11.7639 32.2667 11.7639C32.3023 11.7639 32.3329 11.7627 32.3548 11.7615C32.3735 11.7605 32.3915 11.7593 32.3999 11.7587L32.4021 11.7585C32.4028 11.7585 32.4035 11.7584 32.4041 11.7584C37.1668 11.7666 41.0278 15.6326 41.0278 20.3973C41.0278 25.167 37.1586 29.0362 32.3889 29.0362C32.318 29.0362 32.2895 29.0337 32.2458 29.0298C32.2001 29.0258 32.1377 29.0203 31.9927 29.0148C31.9035 29.0113 31.8149 29.0187 31.7289 29.0362Z" fill="#374553"/>
<path d="M32.8444 30.0639L27.1833 30.0306L32.8444 20.3861H23.7666L17.1555 34.1583L23.7166 34.4028L17.7833 45.9639L32.8444 30.0639Z" fill="#F4AF3B"/>
<path fill-rule="evenodd" clip-rule="evenodd" d="M22.765 19.9053C22.9499 19.5201 23.3393 19.275 23.7667 19.275H32.8444C33.2428 19.275 33.6107 19.4883 33.8087 19.834C34.0066 20.1798 34.0043 20.605 33.8027 20.9486L29.1172 28.9308L32.851 28.9528C33.2937 28.9554 33.6926 29.2206 33.8664 29.6279C34.0402 30.0351 33.9556 30.5066 33.6511 30.828L18.59 46.728C18.2098 47.1294 17.5923 47.1902 17.1411 46.8706C16.69 46.5511 16.5424 45.9485 16.7948 45.4566L21.9313 35.4482L17.1142 35.2687C16.7399 35.2548 16.3978 35.0532 16.2043 34.7325C16.0107 34.4118 15.9918 34.0152 16.1539 33.6775L22.765 19.9053ZM24.4658 21.4972L18.8907 33.1111L23.758 33.2925C24.1376 33.3066 24.4836 33.5136 24.6755 33.8414C24.8674 34.1691 24.8786 34.5722 24.7052 34.9101L22.3187 39.5602L30.2758 31.1599L27.1768 31.1417C26.7796 31.1393 26.4138 30.9251 26.2175 30.5798C26.0211 30.2345 26.024 29.8107 26.2251 29.4681L30.9038 21.4972H24.4658Z" fill="#374553"/>
</g>
<defs>
<clipPath id="clip0_82_829">
<rect width="36.5" height="44.15" fill="white" transform="translate(6.75 2.92505)"/>
</clipPath>
</defs>
</svg>
