<svg width="33" height="33" viewBox="0 0 33 33" fill="none" xmlns="http://www.w3.org/2000/svg">
<path d="M23.1504 17.5298L13.1504 27.5298C13.0575 27.6227 12.9472 27.6964 12.8258 27.7467C12.7044 27.797 12.5743 27.8229 12.4429 27.8229C12.3115 27.8229 12.1814 27.797 12.06 27.7467C11.9386 27.6964 11.8283 27.6227 11.7354 27.5298C11.6425 27.4369 11.5688 27.3266 11.5185 27.2052C11.4683 27.0838 11.4424 26.9537 11.4424 26.8223C11.4424 26.6909 11.4683 26.5608 11.5185 26.4394C11.5688 26.318 11.6425 26.2077 11.7354 26.1148L21.0292 16.8223L11.7354 7.52983C11.5478 7.34219 11.4424 7.0877 11.4424 6.82233C11.4424 6.55697 11.5478 6.30247 11.7354 6.11483C11.9231 5.92719 12.1776 5.82178 12.4429 5.82178C12.7083 5.82178 12.9628 5.92719 13.1504 6.11483L23.1504 16.1148C23.2434 16.2077 23.3172 16.318 23.3675 16.4394C23.4178 16.5608 23.4437 16.6909 23.4437 16.8223C23.4437 16.9537 23.4178 17.0839 23.3675 17.2053C23.3172 17.3267 23.2434 17.437 23.1504 17.5298Z" fill="black"/>
</svg>
