<svg width="50" height="50" viewBox="0 0 50 50" fill="none" xmlns="http://www.w3.org/2000/svg">
<g clip-path="url(#clip0_82_828)">
<path d="M32.0852 11.6845C32.0426 11.6845 32.0053 11.6898 31.968 11.6898C29.8158 7.90217 25.7511 5.34509 21.0845 5.34509C14.1697 5.34509 8.56543 10.9494 8.56543 17.8641C8.56543 24.7789 14.1697 30.3831 21.0845 30.3831H31.6644V30.3618C31.8082 30.3672 31.9467 30.3831 32.0852 30.3831C37.2473 30.3831 41.4345 26.1959 41.4345 21.0338C41.4345 15.8717 37.2473 11.6845 32.0852 11.6845Z" fill="white"/>
<path fill-rule="evenodd" clip-rule="evenodd" d="M7.45435 17.8641C7.45435 10.3357 13.5561 4.23401 21.0845 4.23401C25.9362 4.23401 30.1882 6.7726 32.6011 10.5859C38.1374 10.855 42.5457 15.4311 42.5457 21.0339C42.5457 26.8096 37.861 31.4943 32.0852 31.4943C31.9829 31.4943 31.8877 31.4887 31.816 31.484C31.7664 31.4908 31.7158 31.4943 31.6644 31.4943H21.0845C13.5561 31.4943 7.45435 25.3926 7.45435 17.8641ZM31.4478 29.2721C31.5319 29.2553 31.6184 29.2483 31.7055 29.2515C31.7836 29.2544 31.8628 29.2598 31.9199 29.2638C31.9311 29.2645 31.9414 29.2652 31.9507 29.2659C32.0175 29.2703 32.0555 29.2721 32.0852 29.2721C36.6337 29.2721 40.3235 25.5823 40.3235 21.0339C40.3235 16.4908 36.6424 12.8043 32.1013 12.7957C32.1012 12.7957 32.1012 12.7957 32.1011 12.7957C32.0944 12.7961 32.0751 12.7975 32.055 12.7986C32.0335 12.7997 32.0033 12.801 31.968 12.801C31.5684 12.801 31.1995 12.5863 31.002 12.2388C29.0386 8.78349 25.3343 6.45623 21.0845 6.45623C14.7834 6.45623 9.67657 11.563 9.67657 17.8641C9.67657 24.1653 14.7834 29.2721 21.0845 29.2721H31.4478Z" fill="#374553"/>
<path fill-rule="evenodd" clip-rule="evenodd" d="M17.9966 34.0854C18.5764 34.2865 18.8833 34.9195 18.6822 35.4993L17.052 40.1979C16.8509 40.7777 16.2178 41.0846 15.6381 40.8835C15.0583 40.6823 14.7514 40.0493 14.9526 39.4695L16.5827 34.7709C16.7838 34.1912 17.4169 33.8842 17.9966 34.0854Z" fill="#374553"/>
<path fill-rule="evenodd" clip-rule="evenodd" d="M23.4491 34.0845C24.0293 34.2842 24.3378 34.9164 24.1381 35.4967L20.8619 45.0165C20.6622 45.5967 20.0299 45.9052 19.4497 45.7055C18.8694 45.5058 18.5609 44.8736 18.7606 44.2933L22.0369 34.7735C22.2366 34.1933 22.8688 33.8848 23.4491 34.0845Z" fill="#374553"/>
<path fill-rule="evenodd" clip-rule="evenodd" d="M28.9048 34.0846C29.4849 34.2846 29.7931 34.917 29.5931 35.4972L26.3115 45.017C26.1115 45.5971 25.4791 45.9053 24.899 45.7053C24.3188 45.5054 24.0106 44.8729 24.2106 44.2928L27.4922 34.773C27.6922 34.1928 28.3246 33.8847 28.9048 34.0846Z" fill="#374553"/>
<path fill-rule="evenodd" clip-rule="evenodd" d="M34.362 34.0854C34.9417 34.2865 35.2486 34.9195 35.0475 35.4993L33.4174 40.1979C33.2162 40.7777 32.5832 41.0846 32.0034 40.8835C31.4237 40.6823 31.1168 40.0493 31.3179 39.4695L32.948 34.7709C33.1492 34.1912 33.7822 33.8842 34.362 34.0854Z" fill="#374553"/>
</g>
<defs>
<clipPath id="clip0_82_828">
<rect width="35" height="41.4406" fill="white" transform="translate(7.5 4.27966)"/>
</clipPath>
</defs>
</svg>
