<svg width="25" height="25" viewBox="0 0 25 25" fill="none" xmlns="http://www.w3.org/2000/svg">
<path d="M20.1275 17.6385L17.1275 20.6385C16.9867 20.7792 16.7959 20.8583 16.5968 20.8583C16.3978 20.8583 16.2069 20.7792 16.0662 20.6385C15.9255 20.4977 15.8464 20.3069 15.8464 20.1078C15.8464 19.9088 15.9255 19.7179 16.0662 19.5772L17.7865 17.8578H4.59684C4.39793 17.8578 4.20716 17.7788 4.06651 17.6382C3.92586 17.4975 3.84684 17.3068 3.84684 17.1078C3.84684 16.9089 3.92586 16.7182 4.06651 16.5775C4.20716 16.4369 4.39793 16.3578 4.59684 16.3578H17.7865L16.0662 14.6385C15.9255 14.4977 15.8464 14.3069 15.8464 14.1078C15.8464 13.9088 15.9255 13.7179 16.0662 13.5772C16.2069 13.4365 16.3978 13.3574 16.5968 13.3574C16.7959 13.3574 16.9867 13.4365 17.1275 13.5772L20.1275 16.5772C20.1972 16.6469 20.2525 16.7296 20.2903 16.8206C20.328 16.9117 20.3474 17.0093 20.3474 17.1078C20.3474 17.2064 20.328 17.304 20.2903 17.395C20.2525 17.4861 20.1972 17.5688 20.1275 17.6385ZM7.06622 11.6385C7.20695 11.7792 7.39782 11.8583 7.59684 11.8583C7.79587 11.8583 7.98674 11.7792 8.12747 11.6385C8.2682 11.4977 8.34726 11.3069 8.34726 11.1078C8.34726 10.9088 8.2682 10.7179 8.12747 10.5772L6.40715 8.85784H19.5968C19.7958 8.85784 19.9865 8.77882 20.1272 8.63817C20.2678 8.49752 20.3468 8.30675 20.3468 8.10784C20.3468 7.90893 20.2678 7.71816 20.1272 7.57751C19.9865 7.43686 19.7958 7.35784 19.5968 7.35784H6.40715L8.12747 5.63846C8.2682 5.49773 8.34726 5.30686 8.34726 5.10784C8.34726 4.90882 8.2682 4.71794 8.12747 4.57721C7.98674 4.43648 7.79587 4.35742 7.59684 4.35742C7.39782 4.35742 7.20695 4.43648 7.06622 4.57721L4.06622 7.57721C3.99649 7.64687 3.94117 7.72959 3.90342 7.82063C3.86568 7.91168 3.84625 8.00928 3.84625 8.10784C3.84625 8.2064 3.86568 8.304 3.90342 8.39504C3.94117 8.48609 3.99649 8.56881 4.06622 8.63846L7.06622 11.6385Z" fill="black"/>
</svg>
