<svg width="33" height="33" viewBox="0 0 33 33" fill="none" xmlns="http://www.w3.org/2000/svg">
<path d="M26.9268 11.366H6.92676C6.39632 11.366 5.88762 11.5767 5.51254 11.9518C5.13747 12.3268 4.92676 12.8355 4.92676 13.366V25.366C4.92676 25.8964 5.13747 26.4051 5.51254 26.7802C5.88762 27.1553 6.39632 27.366 6.92676 27.366H26.9268C27.4572 27.366 27.9659 27.1553 28.341 26.7802C28.716 26.4051 28.9268 25.8964 28.9268 25.366V13.366C28.9268 12.8355 28.716 12.3268 28.341 11.9518C27.9659 11.5767 27.4572 11.366 26.9268 11.366ZM26.9268 25.366H6.92676V13.366H26.9268V25.366ZM6.92676 8.36597C6.92676 8.10075 7.03211 7.8464 7.21965 7.65886C7.40719 7.47132 7.66154 7.36597 7.92676 7.36597H25.9268C26.192 7.36597 26.4463 7.47132 26.6339 7.65886C26.8214 7.8464 26.9268 8.10075 26.9268 8.36597C26.9268 8.63118 26.8214 8.88554 26.6339 9.07307C26.4463 9.26061 26.192 9.36597 25.9268 9.36597H7.92676C7.66154 9.36597 7.40719 9.26061 7.21965 9.07307C7.03211 8.88554 6.92676 8.63118 6.92676 8.36597ZM8.92676 4.36597C8.92676 4.10075 9.03211 3.8464 9.21965 3.65886C9.40719 3.47132 9.66154 3.36597 9.92676 3.36597H23.9268C24.192 3.36597 24.4463 3.47132 24.6339 3.65886C24.8214 3.8464 24.9268 4.10075 24.9268 4.36597C24.9268 4.63118 24.8214 4.88554 24.6339 5.07307C24.4463 5.26061 24.192 5.36597 23.9268 5.36597H9.92676C9.66154 5.36597 9.40719 5.26061 9.21965 5.07307C9.03211 4.88554 8.92676 4.63118 8.92676 4.36597Z" fill="black"/>
</svg>
