<svg width="33" height="33" viewBox="0 0 33 33" fill="none" xmlns="http://www.w3.org/2000/svg">
<path d="M28.7226 10.033L23.1376 4.44679C22.9519 4.26102 22.7314 4.11366 22.4887 4.01312C22.246 3.91259 21.9859 3.86084 21.7232 3.86084C21.4605 3.86084 21.2004 3.91259 20.9578 4.01312C20.7151 4.11366 20.4946 4.26102 20.3088 4.44679L4.8951 19.8618C4.70857 20.0468 4.56069 20.2671 4.46005 20.5098C4.3594 20.7525 4.30801 21.0128 4.30885 21.2755V26.8618C4.30885 27.3922 4.51956 27.9009 4.89463 28.276C5.26971 28.6511 5.77841 28.8618 6.30885 28.8618H11.8951C12.1578 28.8626 12.4181 28.8112 12.6608 28.7106C12.9035 28.6099 13.1238 28.4621 13.3088 28.2755L28.7226 12.8618C28.9084 12.6761 29.0557 12.4556 29.1563 12.2129C29.2568 11.9702 29.3085 11.7101 29.3085 11.4474C29.3085 11.1847 29.2568 10.9246 29.1563 10.6819C29.0557 10.4393 28.9084 10.2188 28.7226 10.033ZM11.8951 26.8618H6.30885V21.2755L17.3088 10.2755L22.8951 15.8618L11.8951 26.8618ZM24.3088 14.4468L18.7226 8.86179L21.7226 5.86179L27.3088 11.4468L24.3088 14.4468Z" fill="black"/>
</svg>
