<svg width="33" height="32" viewBox="0 0 33 32" fill="none" xmlns="http://www.w3.org/2000/svg">
<path d="M16.7798 3C14.2086 3 11.6952 3.76244 9.55738 5.1909C7.41954 6.61935 5.7533 8.64968 4.76936 11.0251C3.78542 13.4006 3.52797 16.0144 4.02958 18.5362C4.53119 21.0579 5.76932 23.3743 7.5874 25.1924C9.40549 27.0105 11.7219 28.2486 14.2436 28.7502C16.7654 29.2518 19.3792 28.9944 21.7547 28.0104C24.1301 27.0265 26.1604 25.3603 27.5889 23.2224C29.0174 21.0846 29.7798 18.5712 29.7798 16C29.7762 12.5533 28.4053 9.24882 25.9682 6.81163C23.531 4.37445 20.2265 3.00364 16.7798 3ZM22.4873 13.7075L15.4873 20.7075C15.3944 20.8005 15.2841 20.8742 15.1627 20.9246C15.0413 20.9749 14.9112 21.0008 14.7798 21.0008C14.6484 21.0008 14.5182 20.9749 14.3969 20.9246C14.2755 20.8742 14.1652 20.8005 14.0723 20.7075L11.0723 17.7075C10.8846 17.5199 10.7792 17.2654 10.7792 17C10.7792 16.7346 10.8846 16.4801 11.0723 16.2925C11.2599 16.1049 11.5144 15.9994 11.7798 15.9994C12.0452 15.9994 12.2997 16.1049 12.4873 16.2925L14.7798 18.5863L21.0723 12.2925C21.1652 12.1996 21.2755 12.1259 21.3969 12.0756C21.5183 12.0253 21.6484 11.9994 21.7798 11.9994C21.9112 11.9994 22.0413 12.0253 22.1627 12.0756C22.2841 12.1259 22.3944 12.1996 22.4873 12.2925C22.5802 12.3854 22.6539 12.4957 22.7042 12.6171C22.7545 12.7385 22.7803 12.8686 22.7803 13C22.7803 13.1314 22.7545 13.2615 22.7042 13.3829C22.6539 13.5043 22.5802 13.6146 22.4873 13.7075Z" fill="white"/>
</svg>
