<svg width="33" height="33" viewBox="0 0 33 33" fill="none" xmlns="http://www.w3.org/2000/svg">
<path d="M25.8658 25.0545C25.9587 25.1474 26.0324 25.2577 26.0827 25.3791C26.1329 25.5005 26.1588 25.6306 26.1588 25.762C26.1588 25.8934 26.1329 26.0235 26.0827 26.1449C26.0324 26.2663 25.9587 26.3766 25.8658 26.4695C25.7729 26.5624 25.6626 26.6361 25.5412 26.6864C25.4198 26.7367 25.2897 26.7626 25.1583 26.7626C25.0269 26.7626 24.8968 26.7367 24.7754 26.6864C24.654 26.6361 24.5437 26.5624 24.4508 26.4695L16.1583 18.1758L7.86577 26.4695C7.67813 26.6572 7.42363 26.7626 7.15827 26.7626C6.89291 26.7626 6.63841 26.6572 6.45077 26.4695C6.26313 26.2819 6.15771 26.0274 6.15771 25.762C6.15771 25.4967 6.26313 25.2422 6.45077 25.0545L14.7445 16.762L6.45077 8.46953C6.26313 8.28189 6.15771 8.02739 6.15771 7.76203C6.15771 7.49667 6.26313 7.24217 6.45077 7.05453C6.63841 6.86689 6.89291 6.76147 7.15827 6.76147C7.42363 6.76147 7.67813 6.86689 7.86577 7.05453L16.1583 15.3483L24.4508 7.05453C24.6384 6.86689 24.8929 6.76147 25.1583 6.76147C25.4236 6.76147 25.6781 6.86689 25.8658 7.05453C26.0534 7.24217 26.1588 7.49667 26.1588 7.76203C26.1588 8.02739 26.0534 8.28189 25.8658 8.46953L17.572 16.762L25.8658 25.0545Z" fill="black"/>
</svg>
