<svg width="50" height="50" viewBox="0 0 50 50" fill="none" xmlns="http://www.w3.org/2000/svg">
<g clip-path="url(#clip0_82_832)">
<path d="M26.2167 21.488C26.178 21.488 26.1393 21.4936 26.1006 21.4936C23.9547 17.7217 19.9064 15.1666 15.2552 15.1666C8.36416 15.1666 2.77832 20.7525 2.77832 27.6435C2.77832 34.5346 8.36416 40.1204 15.2552 40.1204H25.8019V40.0983C25.9402 40.1038 26.0785 40.1204 26.2223 40.1204C31.3712 40.1204 35.5412 35.9504 35.5412 30.8015C35.5412 25.6525 31.3712 21.4825 26.2223 21.4825L26.2167 21.488Z" fill="white"/>
<path fill-rule="evenodd" clip-rule="evenodd" d="M1.66711 27.6435C1.66711 20.1388 7.75042 14.0555 15.2551 14.0555C20.0899 14.0555 24.3231 16.5898 26.7292 20.3835C32.2561 20.6478 36.6522 25.2089 36.6522 30.8015C36.6522 36.5641 31.9848 41.2315 26.2222 41.2315C26.1199 41.2315 26.026 41.2262 25.9534 41.2213C25.9039 41.2281 25.8533 41.2315 25.8019 41.2315H15.2551C7.75042 41.2315 1.66711 35.1482 1.66711 27.6435ZM25.5812 39.0093C25.6677 38.9918 25.7566 38.9845 25.8463 38.9881C25.9204 38.9911 25.9983 38.9967 26.0537 39.0006C26.0659 39.0015 26.077 39.0023 26.0868 39.003C26.1515 39.0075 26.1904 39.0093 26.2222 39.0093C30.7575 39.0093 34.43 35.3368 34.43 30.8015C34.43 26.2993 30.8109 22.6473 26.3214 22.5942C26.2946 22.5968 26.2676 22.5983 26.2405 22.5989C26.2397 22.599 26.2388 22.599 26.2377 22.5991L26.2361 22.5992C26.2273 22.5999 26.2089 22.6012 26.189 22.6022C26.1667 22.6034 26.1361 22.6047 26.1005 22.6047C25.701 22.6047 25.3323 22.3902 25.1347 22.043C23.1771 18.6019 19.4882 16.2778 15.2551 16.2778C8.97772 16.2778 3.88934 21.3661 3.88934 27.6435C3.88934 33.9209 8.97772 39.0093 15.2551 39.0093H25.5812Z" fill="#374553"/>
<path d="M39.5784 15.0561C39.5453 15.0561 39.5121 15.0561 39.4789 15.0561C37.7202 11.959 34.3963 9.86841 30.5803 9.86841C26.1614 9.86841 22.4117 12.6724 20.9792 16.588C23.1196 17.6996 24.9059 19.3975 26.095 21.4881C26.1337 21.4881 26.1724 21.4825 26.2111 21.4825C31.1997 21.4825 35.2646 25.4092 35.508 30.3369H39.23V30.3203C39.3462 30.3203 39.4568 30.3369 39.5729 30.3369C43.7927 30.3369 47.2161 26.9135 47.2161 22.6937C47.2161 18.4739 43.7927 15.0505 39.5729 15.0505L39.5784 15.0561Z" fill="white"/>
<path fill-rule="evenodd" clip-rule="evenodd" d="M19.9357 16.2063C21.5224 11.869 25.6777 8.75732 30.5802 8.75732C34.5818 8.75732 38.0934 10.8311 40.1107 13.9557C44.6938 14.2337 48.3272 18.0409 48.3272 22.6937C48.3272 27.5272 44.4063 31.4481 39.5729 31.4481C39.4931 31.4481 39.4181 31.4437 39.3645 31.44C39.3204 31.4453 39.2755 31.4481 39.23 31.4481H35.5079C34.9156 31.4481 34.4274 30.9834 34.3982 30.3918C34.1841 26.0572 30.6131 22.6041 26.231 22.5937C26.2222 22.5943 26.2033 22.5957 26.1834 22.5967C26.1611 22.5979 26.1305 22.5992 26.095 22.5992C25.6954 22.5992 25.3267 22.3847 25.1291 22.0374C24.0487 20.1378 22.422 18.5894 20.4671 17.5741C19.9713 17.3166 19.7438 16.731 19.9357 16.2063ZM39.0376 29.2258C39.1001 29.2149 39.1644 29.2092 39.23 29.2092C39.3296 29.2092 39.4216 29.216 39.474 29.2199L39.4825 29.2205C39.5453 29.2251 39.5619 29.2258 39.5729 29.2258C43.179 29.2258 46.105 26.2999 46.105 22.6937C46.105 19.1235 43.237 16.22 39.6803 16.1625C39.6467 16.1656 39.6127 16.1672 39.5784 16.1672H39.4792C39.0794 16.1672 38.7101 15.9524 38.5127 15.6047C36.9429 12.8404 33.9796 10.9795 30.5802 10.9795C26.9757 10.9795 23.8671 13.0739 22.3879 16.1108C24.1343 17.1899 25.6243 18.6476 26.7271 20.384C31.7173 20.6275 35.7771 24.3828 36.5119 29.2258H39.0376Z" fill="#374553"/>
</g>
<defs>
<clipPath id="clip0_82_832">
<rect width="46.6667" height="32.4642" fill="white" transform="translate(1.66663 8.76782)"/>
</clipPath>
</defs>
</svg>
