<svg width="32" height="33" viewBox="0 0 32 33" fill="none" xmlns="http://www.w3.org/2000/svg">
<path d="M28 18.2859V26.2859C28 26.5512 27.8946 26.8055 27.7071 26.993C27.5196 27.1806 27.2652 27.2859 27 27.2859H5C4.73478 27.2859 4.48043 27.1806 4.29289 26.993C4.10536 26.8055 4 26.5512 4 26.2859V18.2859C4 18.0207 4.10536 17.7664 4.29289 17.5788C4.48043 17.3913 4.73478 17.2859 5 17.2859C5.26522 17.2859 5.51957 17.3913 5.70711 17.5788C5.89464 17.7664 6 18.0207 6 18.2859V25.2859H26V18.2859C26 18.0207 26.1054 17.7664 26.2929 17.5788C26.4804 17.3913 26.7348 17.2859 27 17.2859C27.2652 17.2859 27.5196 17.3913 27.7071 17.5788C27.8946 17.7664 28 18.0207 28 18.2859ZM11.7075 9.99344L15 6.69969V18.2859C15 18.5512 15.1054 18.8055 15.2929 18.9931C15.4804 19.1806 15.7348 19.2859 16 19.2859C16.2652 19.2859 16.5196 19.1806 16.7071 18.9931C16.8946 18.8055 17 18.5512 17 18.2859V6.69969L20.2925 9.99344C20.4801 10.1811 20.7346 10.2865 21 10.2865C21.2654 10.2865 21.5199 10.1811 21.7075 9.99344C21.8951 9.8058 22.0006 9.55131 22.0006 9.28594C22.0006 9.02058 21.8951 8.76608 21.7075 8.57844L16.7075 3.57844C16.6146 3.48547 16.5043 3.41171 16.3829 3.36138C16.2615 3.31106 16.1314 3.28516 16 3.28516C15.8686 3.28516 15.7385 3.31106 15.6171 3.36138C15.4957 3.41171 15.3854 3.48547 15.2925 3.57844L10.2925 8.57844C10.1049 8.76608 9.99944 9.02058 9.99944 9.28594C9.99944 9.55131 10.1049 9.8058 10.2925 9.99344C10.4801 10.1811 10.7346 10.2865 11 10.2865C11.2654 10.2865 11.5199 10.1811 11.7075 9.99344Z" fill="black"/>
</svg>
