<svg width="50" height="50" viewBox="0 0 50 50" fill="none" xmlns="http://www.w3.org/2000/svg">
<g clip-path="url(#clip0_82_830)">
<path fill-rule="evenodd" clip-rule="evenodd" d="M17.5639 21.2888C18.1775 21.2888 18.675 21.7863 18.675 22.3999V34.061C18.675 34.6747 18.1775 35.1722 17.5639 35.1722C16.9502 35.1722 16.4528 34.6747 16.4528 34.061V22.3999C16.4528 21.7863 16.9502 21.2888 17.5639 21.2888Z" fill="#374553"/>
<path fill-rule="evenodd" clip-rule="evenodd" d="M13.056 22.9087C13.4899 22.4748 14.1935 22.4748 14.6274 22.9087L18.3496 26.6309C18.7835 27.0648 18.7835 27.7683 18.3496 28.2023C17.9157 28.6362 17.2122 28.6362 16.7783 28.2023L13.056 24.48C12.6221 24.0461 12.6221 23.3426 13.056 22.9087Z" fill="#374553"/>
<path fill-rule="evenodd" clip-rule="evenodd" d="M22.0718 22.9087C22.5057 23.3426 22.5057 24.0461 22.0718 24.48L18.3495 28.2023C17.9156 28.6362 17.2121 28.6362 16.7782 28.2023C16.3443 27.7683 16.3443 27.0648 16.7782 26.6309L20.5004 22.9087C20.9343 22.4748 21.6378 22.4748 22.0718 22.9087Z" fill="#374553"/>
<path fill-rule="evenodd" clip-rule="evenodd" d="M6.50156 27.6779C6.80825 27.1464 7.48775 26.9642 8.01927 27.2709L18.1193 33.0986C18.6508 33.4053 18.833 34.0848 18.5264 34.6163C18.2197 35.1478 17.5402 35.3301 17.0086 35.0234L6.90865 29.1956C6.37713 28.8889 6.19488 28.2095 6.50156 27.6779Z" fill="#374553"/>
<path fill-rule="evenodd" clip-rule="evenodd" d="M12.8817 30.4514C13.0404 31.0442 12.6885 31.6534 12.0958 31.8121L7.01242 33.1732C6.41965 33.332 5.81045 32.9801 5.65173 32.3873C5.49301 31.7946 5.84488 31.1854 6.43765 31.0266L11.521 29.6655C12.1137 29.5068 12.7229 29.8587 12.8817 30.4514Z" fill="#374553"/>
<path fill-rule="evenodd" clip-rule="evenodd" d="M10.1598 24.5822C10.7526 24.4234 11.3618 24.7753 11.5205 25.3681L12.8816 30.4514C13.0403 31.0442 12.6885 31.6534 12.0957 31.8121C11.5029 31.9708 10.8937 31.6189 10.735 31.0262L9.3739 25.9428C9.21518 25.3501 9.56705 24.7409 10.1598 24.5822Z" fill="#374553"/>
<path fill-rule="evenodd" clip-rule="evenodd" d="M18.5261 33.5053C18.833 34.0367 18.6511 34.7163 18.1197 35.0232L8.01966 40.8565C7.48827 41.1634 6.8087 40.9814 6.50179 40.45C6.19489 39.9187 6.37686 39.2391 6.90825 38.9322L17.0083 33.0988C17.5396 32.7919 18.2192 32.9739 18.5261 33.5053Z" fill="#374553"/>
<path fill-rule="evenodd" clip-rule="evenodd" d="M12.0957 36.3099C12.6885 36.4687 13.0403 37.0779 12.8816 37.6706L11.5205 42.754C11.3618 43.3467 10.7526 43.6986 10.1598 43.5399C9.56705 43.3812 9.21518 42.772 9.3739 42.1792L10.735 37.0959C10.8937 36.5031 11.5029 36.1512 12.0957 36.3099Z" fill="#374553"/>
<path fill-rule="evenodd" clip-rule="evenodd" d="M5.65173 35.7348C5.81045 35.142 6.41965 34.7901 7.01242 34.9489L12.0958 36.31C12.6885 36.4687 13.0404 37.0779 12.8817 37.6707C12.7229 38.2634 12.1137 38.6153 11.521 38.4566L6.43765 37.0955C5.84488 36.9367 5.49301 36.3275 5.65173 35.7348Z" fill="#374553"/>
<path fill-rule="evenodd" clip-rule="evenodd" d="M17.5639 32.95C18.1775 32.95 18.675 33.4474 18.675 34.0611V45.7222C18.675 46.3358 18.1775 46.8333 17.5639 46.8333C16.9502 46.8333 16.4528 46.3358 16.4528 45.7222V34.0611C16.4528 33.4474 16.9502 32.95 17.5639 32.95Z" fill="#374553"/>
<path fill-rule="evenodd" clip-rule="evenodd" d="M16.7782 39.9198C17.2121 39.4859 17.9156 39.4859 18.3495 39.9198L22.0718 43.642C22.5057 44.0759 22.5057 44.7795 22.0718 45.2134C21.6379 45.6473 20.9343 45.6473 20.5004 45.2134L16.7782 41.4911C16.3443 41.0572 16.3443 40.3537 16.7782 39.9198Z" fill="#374553"/>
<path fill-rule="evenodd" clip-rule="evenodd" d="M18.3496 39.9198C18.7835 40.3537 18.7835 41.0572 18.3496 41.4911L14.6274 45.2134C14.1935 45.6473 13.4899 45.6473 13.056 45.2134C12.6221 44.7795 12.6221 44.0759 13.056 43.642L16.7783 39.9198C17.2122 39.4859 17.9157 39.4859 18.3496 39.9198Z" fill="#374553"/>
<path fill-rule="evenodd" clip-rule="evenodd" d="M16.6018 33.5053C16.9087 32.9739 17.5883 32.7919 18.1196 33.0988L28.2196 38.9322C28.751 39.2391 28.933 39.9187 28.6261 40.45C28.3192 40.9814 27.6396 41.1634 27.1082 40.8565L17.0082 35.0232C16.4768 34.7163 16.2949 34.0367 16.6018 33.5053Z" fill="#374553"/>
<path fill-rule="evenodd" clip-rule="evenodd" d="M29.4705 35.7348C29.6293 36.3275 29.2774 36.9367 28.6846 37.0955L23.6013 38.4566C23.0085 38.6153 22.3993 38.2634 22.2406 37.6707C22.0819 37.0779 22.4337 36.4687 23.0265 36.31L28.1098 34.9489C28.7026 34.7901 29.3118 35.142 29.4705 35.7348Z" fill="#374553"/>
<path fill-rule="evenodd" clip-rule="evenodd" d="M23.0254 36.3102C23.618 36.1509 24.2276 36.5022 24.3869 37.0948L25.7536 42.1781C25.9129 42.7707 25.5617 43.3803 24.969 43.5396C24.3764 43.6989 23.7669 43.3477 23.6076 42.7551L22.2409 37.6717C22.0816 37.0791 22.4328 36.4696 23.0254 36.3102Z" fill="#374553"/>
<path fill-rule="evenodd" clip-rule="evenodd" d="M28.6263 27.6779C28.933 28.2095 28.7508 28.8889 28.2192 29.1956L18.1192 35.0234C17.5877 35.3301 16.9082 35.1478 16.6015 34.6163C16.2949 34.0848 16.4771 33.4053 17.0086 33.0986L27.1086 27.2709C27.6401 26.9642 28.3196 27.1464 28.6263 27.6779Z" fill="#374553"/>
<path fill-rule="evenodd" clip-rule="evenodd" d="M24.969 24.5824C25.5617 24.7418 25.9129 25.3513 25.7536 25.9439L24.3869 31.0273C24.2276 31.6199 23.618 31.9711 23.0254 31.8118C22.4328 31.6525 22.0816 31.0429 22.2409 30.4503L23.6076 25.367C23.7669 24.7744 24.3764 24.4231 24.969 24.5824Z" fill="#374553"/>
<path fill-rule="evenodd" clip-rule="evenodd" d="M22.2406 30.4514C22.3993 29.8587 23.0085 29.5068 23.6013 29.6655L28.6846 31.0266C29.2774 31.1854 29.6293 31.7946 29.4705 32.3873C29.3118 32.9801 28.7026 33.332 28.1098 33.1732L23.0265 31.8121C22.4337 31.6534 22.0819 31.0442 22.2406 30.4514Z" fill="#374553"/>
<path fill-rule="evenodd" clip-rule="evenodd" d="M25.3916 3.16663C26.0053 3.16663 26.5027 3.66409 26.5027 4.27774V15.0111C26.5027 15.6247 26.0053 16.1222 25.3916 16.1222C24.778 16.1222 24.2805 15.6247 24.2805 15.0111V4.27774C24.2805 3.66409 24.778 3.16663 25.3916 3.16663Z" fill="#374553"/>
<path fill-rule="evenodd" clip-rule="evenodd" d="M31.004 6.40568C31.3108 6.93718 31.1285 7.61669 30.597 7.9234L21.297 13.2901C20.7655 13.5968 20.086 13.4145 19.7793 12.883C19.4726 12.3515 19.6548 11.672 20.1863 11.3653L29.4863 5.99866C30.0178 5.69195 30.6973 5.87418 31.004 6.40568Z" fill="#374553"/>
<path fill-rule="evenodd" clip-rule="evenodd" d="M19.7793 6.40568C20.086 5.87418 20.7655 5.69195 21.297 5.99866L30.597 11.3653C31.1285 11.672 31.3108 12.3515 31.004 12.883C30.6973 13.4145 30.0178 13.5968 29.4863 13.2901L20.1863 7.9234C19.6548 7.61669 19.4726 6.93718 19.7793 6.40568Z" fill="#374553"/>
<path fill-rule="evenodd" clip-rule="evenodd" d="M40.1751 18.0667C40.7887 18.0667 41.2862 18.5641 41.2862 19.1778V26.3444C41.2862 26.9581 40.7887 27.4555 40.1751 27.4555C39.5614 27.4555 39.064 26.9581 39.064 26.3444V19.1778C39.064 18.5641 39.5614 18.0667 40.1751 18.0667Z" fill="#374553"/>
<path fill-rule="evenodd" clip-rule="evenodd" d="M44.2374 20.4169C44.5441 20.9484 44.3619 21.6279 43.8304 21.9346L37.6304 25.5124C37.0989 25.8191 36.4194 25.6369 36.1127 25.1054C35.806 24.5739 35.9882 23.8944 36.5197 23.5877L42.7197 20.0099C43.2512 19.7032 43.9307 19.8854 44.2374 20.4169Z" fill="#374553"/>
<path fill-rule="evenodd" clip-rule="evenodd" d="M36.1127 20.4169C36.4194 19.8854 37.0989 19.7032 37.6304 20.0099L43.8304 23.5877C44.3619 23.8944 44.5441 24.5739 44.2374 25.1054C43.9307 25.6369 43.2512 25.8191 42.7197 25.5124L36.5197 21.9346C35.9882 21.6279 35.806 20.9484 36.1127 20.4169Z" fill="#374553"/>
</g>
<defs>
<clipPath id="clip0_82_830">
<rect width="38.7722" height="43.6667" fill="white" transform="translate(5.61389 3.16663)"/>
</clipPath>
</defs>
</svg>
