<svg width="28" height="28" viewBox="0 0 28 28" fill="none" xmlns="http://www.w3.org/2000/svg">
<path fill-rule="evenodd" clip-rule="evenodd" d="M5.1333 4.16675C4.85716 4.16675 4.6333 4.39061 4.6333 4.66675V15.2284V22.8667C4.6333 23.1429 4.85716 23.3667 5.1333 23.3667H8.43382C8.70996 23.3667 8.93382 23.1429 8.93382 22.8667C8.93382 22.5906 8.70996 22.3667 8.43382 22.3667H5.6333V15.7284H11.14V16.1714C11.14 16.4476 11.3639 16.6714 11.64 16.6714C11.9162 16.6714 12.14 16.4476 12.14 16.1714V15.2284C12.14 14.9523 11.9162 14.7284 11.64 14.7284H5.6333V5.16675H15.3836V8.03307H14.8463C14.5701 8.03307 14.3463 8.25693 14.3463 8.53307C14.3463 8.80921 14.5701 9.03307 14.8463 9.03307H15.8836C16.1597 9.03307 16.3836 8.80921 16.3836 8.53307V5.16675H22.8333V8.97607H20.8815C20.6053 8.97607 20.3815 9.19993 20.3815 9.47607C20.3815 9.75222 20.6053 9.97607 20.8815 9.97607H22.8333V14.7284H16.3836V12.9652C16.3836 12.6891 16.1597 12.4652 15.8836 12.4652C15.6074 12.4652 15.3836 12.6891 15.3836 12.9652V22.3667H12.583C12.3069 22.3667 12.083 22.5906 12.083 22.8667C12.083 23.1429 12.3069 23.3667 12.583 23.3667H15.8836C16.1597 23.3667 16.3836 23.1429 16.3836 22.8667V15.7284H23.3333C23.6094 15.7284 23.8333 15.5045 23.8333 15.2284V9.47607V4.66675C23.8333 4.39061 23.6094 4.16675 23.3333 4.16675H15.8836H5.1333Z" fill="black"/>
</svg>
