<svg width="33" height="33" viewBox="0 0 33 33" fill="none" xmlns="http://www.w3.org/2000/svg">
<path d="M15.0425 16.2344V6.23438C15.0425 5.96916 15.1479 5.7148 15.3354 5.52727C15.523 5.33973 15.7773 5.23438 16.0425 5.23438C16.3078 5.23438 16.5621 5.33973 16.7496 5.52727C16.9372 5.7148 17.0425 5.96916 17.0425 6.23438V16.2344C17.0425 16.4996 16.9372 16.7539 16.7496 16.9415C16.5621 17.129 16.3078 17.2344 16.0425 17.2344C15.7773 17.2344 15.523 17.129 15.3354 16.9415C15.1479 16.7539 15.0425 16.4996 15.0425 16.2344ZM22.5888 6.39687C22.3667 6.2565 22.0983 6.20918 21.8416 6.26513C21.5849 6.32108 21.3605 6.47582 21.2169 6.69589C21.0734 6.91595 21.0222 7.18367 21.0745 7.44115C21.1268 7.69864 21.2783 7.92521 21.4963 8.07188C24.385 9.95563 26.0425 12.9306 26.0425 16.2344C26.0425 18.8865 24.989 21.4301 23.1136 23.3054C21.2382 25.1808 18.6947 26.2344 16.0425 26.2344C13.3904 26.2344 10.8468 25.1808 8.97147 23.3054C7.09611 21.4301 6.04254 18.8865 6.04254 16.2344C6.04254 12.9306 7.70004 9.95563 10.5888 8.07188C10.8068 7.92521 10.9583 7.69864 11.0106 7.44115C11.0628 7.18367 11.0117 6.91595 10.8681 6.69589C10.7246 6.47582 10.5002 6.32108 10.2435 6.26513C9.98681 6.20918 9.71839 6.2565 9.49629 6.39687C6.03004 8.65687 4.04254 12.2419 4.04254 16.2344C4.04254 19.417 5.30682 22.4692 7.55726 24.7197C9.8077 26.9701 12.8599 28.2344 16.0425 28.2344C19.2251 28.2344 22.2774 26.9701 24.5278 24.7197C26.7783 22.4692 28.0425 19.417 28.0425 16.2344C28.0425 12.2419 26.055 8.65687 22.5888 6.39687Z" fill="black"/>
</svg>
