<svg width="50" height="50" viewBox="0 0 50 50" fill="none" xmlns="http://www.w3.org/2000/svg">
<g clip-path="url(#clip0_82_825)">
<path fill-rule="evenodd" clip-rule="evenodd" d="M29.8472 10.0889C28.4886 10.0889 27.386 11.1915 27.386 12.55C27.386 13.9086 28.4886 15.0111 29.8472 15.0111H43.4638C44.0775 15.0111 44.5749 15.5086 44.5749 16.1223C44.5749 16.7359 44.0775 17.2334 43.4638 17.2334H29.8472C27.2613 17.2334 25.1638 15.1359 25.1638 12.55C25.1638 9.96416 27.2613 7.8667 29.8472 7.8667C31.7862 7.8667 33.4538 9.04798 34.1605 10.731C34.3981 11.2968 34.132 11.948 33.5662 12.1856C33.0004 12.4232 32.3492 12.1571 32.1116 11.5913C31.7405 10.7076 30.8637 10.0889 29.8472 10.0889Z" fill="#374553"/>
<path fill-rule="evenodd" clip-rule="evenodd" d="M11.9028 14.8C9.54981 14.8 7.64727 16.7025 7.64727 19.0555C7.64727 21.4078 9.55462 23.3111 11.9028 23.3111H35.9806C36.5943 23.3111 37.0917 23.8086 37.0917 24.4222C37.0917 25.0359 36.5943 25.5333 35.9806 25.5333H11.9028C8.32881 25.5333 5.42505 22.6366 5.42505 19.0555C5.42505 15.4752 8.32251 12.5778 11.9028 12.5778C15.4831 12.5778 18.3806 15.4752 18.3806 19.0555C18.3806 19.6692 17.8831 20.1666 17.2695 20.1666C16.6558 20.1666 16.1584 19.6692 16.1584 19.0555C16.1584 16.7025 14.2558 14.8 11.9028 14.8Z" fill="#374553"/>
<path fill-rule="evenodd" clip-rule="evenodd" d="M37.9363 24.4221C37.9363 23.8085 38.4337 23.311 39.0474 23.311H43.4641C44.0777 23.311 44.5752 23.8085 44.5752 24.4221C44.5752 25.0358 44.0777 25.5333 43.4641 25.5333H39.0474C38.4337 25.5333 37.9363 25.0358 37.9363 24.4221Z" fill="#374553"/>
<path fill-rule="evenodd" clip-rule="evenodd" d="M21.2084 33.7889C19.5165 33.7889 18.1473 35.1581 18.1473 36.85C18.1473 38.5419 19.5165 39.9111 21.2084 39.9111H27.5195C28.1331 39.9111 28.6306 40.4086 28.6306 41.0222C28.6306 41.6359 28.1331 42.1333 27.5195 42.1333H21.2084C18.2892 42.1333 15.925 39.7692 15.925 36.85C15.925 33.9308 18.2892 31.5667 21.2084 31.5667C23.0304 31.5667 24.6418 32.4896 25.5904 33.895C25.9338 34.4036 25.7998 35.0943 25.2911 35.4376C24.7825 35.7809 24.0919 35.6469 23.7485 35.1383C23.1972 34.3215 22.2641 33.7889 21.2084 33.7889Z" fill="#374553"/>
<path fill-rule="evenodd" clip-rule="evenodd" d="M29.9529 41.0222C29.9529 40.4086 30.4503 39.9111 31.064 39.9111H43.464C44.0776 39.9111 44.5751 40.4086 44.5751 41.0222C44.5751 41.6359 44.0776 42.1334 43.464 42.1334H31.064C30.4503 42.1334 29.9529 41.6359 29.9529 41.0222Z" fill="#374553"/>
<path fill-rule="evenodd" clip-rule="evenodd" d="M29.6028 32.7222C29.6028 32.1085 30.1002 31.6111 30.7139 31.6111H43.4639C44.0775 31.6111 44.575 32.1085 44.575 32.7222C44.575 33.3358 44.0775 33.8333 43.4639 33.8333H30.7139C30.1002 33.8333 29.6028 33.3358 29.6028 32.7222Z" fill="#374553"/>
</g>
<defs>
<clipPath id="clip0_82_825">
<rect width="39.15" height="34.2667" fill="white" transform="translate(5.42505 7.8667)"/>
</clipPath>
</defs>
</svg>
