<svg width="33" height="33" viewBox="0 0 33 33" fill="none" xmlns="http://www.w3.org/2000/svg">
<path d="M28.1301 9.50862C27.8947 9.63052 27.6205 9.65397 27.3678 9.5738C27.1152 9.49364 26.9046 9.31643 26.7826 9.08112C25.8281 7.19549 24.3833 5.60175 22.6001 4.46737C22.4889 4.39728 22.3927 4.30598 22.3169 4.1987C22.241 4.09141 22.187 3.97024 22.158 3.84209C22.129 3.71395 22.1255 3.58134 22.1477 3.45185C22.17 3.32235 22.2175 3.1985 22.2876 3.08737C22.3577 2.97624 22.449 2.88 22.5562 2.80416C22.6635 2.72831 22.7847 2.67433 22.9128 2.64532C23.041 2.6163 23.1736 2.6128 23.3031 2.63503C23.4326 2.65726 23.5564 2.70478 23.6676 2.77487C25.7458 4.10554 27.4333 5.96433 28.5576 8.16112C28.6795 8.39652 28.7029 8.67069 28.6227 8.92336C28.5426 9.17604 28.3654 9.38655 28.1301 9.50862ZM4.59382 9.62112C4.77702 9.62105 4.95669 9.57064 5.11319 9.47541C5.2697 9.38019 5.39705 9.24379 5.48132 9.08112C6.43582 7.19549 7.88059 5.60175 9.66382 4.46737C9.88826 4.32581 10.0473 4.10089 10.1059 3.84209C10.1645 3.58329 10.1179 3.31181 9.97632 3.08737C9.83476 2.86293 9.60984 2.70392 9.35104 2.64532C9.09224 2.58671 8.82076 2.63331 8.59632 2.77487C6.51807 4.10554 4.83054 5.96433 3.70632 8.16112C3.62737 8.31352 3.58897 8.48368 3.59482 8.65521C3.60067 8.82675 3.65058 8.99389 3.73973 9.14056C3.82888 9.28722 3.95429 9.40847 4.10387 9.49264C4.25345 9.5768 4.42218 9.62105 4.59382 9.62112ZM27.8563 22.6136C28.0335 22.9174 28.1274 23.2626 28.1286 23.6143C28.1298 23.9659 28.0383 24.3117 27.8632 24.6167C27.6881 24.9218 27.4357 25.1752 27.1314 25.3515C26.8272 25.5279 26.4818 25.6209 26.1301 25.6211H21.0301C20.8006 26.7514 20.1873 27.7676 19.2943 28.4975C18.4013 29.2274 17.2834 29.6261 16.1301 29.6261C14.9767 29.6261 13.8588 29.2274 12.9658 28.4975C12.0728 27.7676 11.4596 26.7514 11.2301 25.6211H6.13007C5.7786 25.6204 5.43351 25.5271 5.12958 25.3506C4.82564 25.1741 4.57359 24.9206 4.39882 24.6157C4.22404 24.3107 4.13271 23.9651 4.13403 23.6136C4.13535 23.2622 4.22926 22.9172 4.40632 22.6136C5.53257 20.6699 6.13007 17.9061 6.13007 14.6211C6.13007 11.969 7.18364 9.42542 9.059 7.55006C10.9344 5.67469 13.4779 4.62112 16.1301 4.62112C18.7822 4.62112 21.3258 5.67469 23.2011 7.55006C25.0765 9.42542 26.1301 11.969 26.1301 14.6211C26.1301 17.9049 26.7276 20.6686 27.8563 22.6136ZM18.9576 25.6211H13.3026C13.5097 26.2054 13.8928 26.7111 14.3992 27.0688C14.9055 27.4265 15.5102 27.6185 16.1301 27.6185C16.75 27.6185 17.3547 27.4265 17.861 27.0688C18.3673 26.7111 18.7504 26.2054 18.9576 25.6211ZM26.1301 23.6211C24.8001 21.3374 24.1301 18.3099 24.1301 14.6211C24.1301 12.4994 23.2872 10.4646 21.7869 8.96427C20.2866 7.46398 18.2518 6.62112 16.1301 6.62112C14.0083 6.62112 11.9735 7.46398 10.4732 8.96427C8.97292 10.4646 8.13007 12.4994 8.13007 14.6211C8.13007 18.3111 7.45757 21.3386 6.13007 23.6211H26.1301Z" fill="#374553"/>
</svg>
